<svg width="32" height="32" viewBox="0 0 32 32" fill="none" xmlns="http://www.w3.org/2000/svg">
<g transform="translate(2, 2) scale(1.0)">
<path d="M24.1584 5.96857L22.8115 6.97876C21.9332 7.63748 20.8649 7.99357 19.7671 7.99357H16.0246C15.218 7.99357 14.4805 8.44933 14.1198 9.17085C13.6746 10.0612 13.9056 11.1412 14.676 11.7716L17.246 13.8743C19.4519 15.6791 20.5934 18.4785 20.2787 21.3112C20.1657 22.328 19.9141 23.3246 19.5308 24.2731L19.1089 25.3173" stroke="white" stroke-width="2"/>
<path d="M1.20703 12.0436L5.36563 11.3505C7.29736 11.0285 8.97209 12.7033 8.65013 14.635L8.50401 15.5117C8.17889 17.4625 9.16407 19.3971 10.9329 20.2815C12.3493 20.9897 13.0838 22.5866 12.6997 24.1229L12.007 26.8936" stroke="white" stroke-width="2"/>
<circle cx="14.0322" cy="14.0686" r="12.5" stroke="white" stroke-width="2"/>
</g>
</svg>
