<svg width="43" height="39" viewBox="0 0 43 39" fill="none" xmlns="http://www.w3.org/2000/svg">
<path d="M21.5294 4.00764L17.8287 10.1755C16.9263 11.6795 16.4751 12.4315 16.4751 13.2624C16.4751 14.0934 16.9263 14.8454 17.8287 16.3494L21.1007 21.8026C21.2922 22.1218 21.3879 22.2813 21.5294 22.2813C21.671 22.2813 21.7667 22.1218 21.9582 21.8026L25.2301 16.3494C26.1325 14.8454 26.5837 14.0934 26.5837 13.2624C26.5837 12.4315 26.1325 11.6795 25.2301 10.1755L21.5294 4.00764ZM21.5294 4.00764V0.305725" stroke="white" stroke-width="2.5"/>
<path d="M36.633 19.9223L29.4412 19.8014C27.6874 19.7719 26.8106 19.7571 26.0909 20.1726C25.3713 20.5881 24.9457 21.3548 24.0944 22.8883L21.0077 28.4485C20.8271 28.7739 20.7367 28.9366 20.8075 29.0592C20.8783 29.1818 21.0643 29.1849 21.4364 29.1911L27.795 29.2981C29.5488 29.3276 30.4256 29.3424 31.1453 28.9269C31.8649 28.5114 32.2905 27.7447 33.1418 26.2111L36.633 19.9223ZM36.633 19.9223L39.8389 18.0714" stroke="white" stroke-width="2.5"/>
<path d="M6.42366 19.9223L13.6155 19.8014C15.3692 19.7719 16.2461 19.7571 16.9657 20.1726C17.6853 20.5881 18.111 21.3548 18.9623 22.8883L22.049 28.4485C22.2296 28.7739 22.3199 28.9366 22.2491 29.0592C22.1783 29.1818 21.9923 29.1849 21.6202 29.1911L15.2616 29.2981C13.5079 29.3276 12.631 29.3424 11.9114 28.9269C11.1918 28.5114 10.7661 27.7447 9.9148 26.2111L6.42366 19.9223ZM6.42366 19.9223L3.2177 18.0714" stroke="white" stroke-width="2.5"/>
<path d="M21.5293 24.3682V38.2503" stroke="white" stroke-width="2.5"/>
</svg>
