<svg width="32" height="32" viewBox="0 0 32 32" fill="none" xmlns="http://www.w3.org/2000/svg">
<g transform="translate(2, 3.5) scale(1.0)">
<path d="M1.31445 4.73531V13.0964C1.31445 18.6485 1.31445 21.4246 3.03927 23.1494C4.76409 24.8742 7.54014 24.8742 13.0922 24.8742L20.7589 24.8742C23.2123 24.8742 24.439 24.8742 25.2589 24.1885C25.3929 24.0764 25.5167 23.9527 25.6287 23.8187C26.3145 22.9987 26.3145 21.772 26.3145 19.3186L26.3145 13.7631C26.3145 11.3097 26.3145 10.083 25.6287 9.26304C25.5167 9.12907 25.3929 9.00533 25.2589 8.89329C24.439 8.20753 23.2123 8.20753 20.7589 8.20753L4.78668 8.20753C2.86902 8.20753 1.31445 6.65296 1.31445 4.73531ZM1.31445 4.73531C1.31445 2.81765 2.86902 1.26308 4.78668 1.26308L23.9335 1.26308C24.4814 1.26308 24.9256 1.70725 24.9256 2.25515C24.9256 5.54256 22.2606 8.20753 18.9732 8.20753H17.9811" stroke="white" stroke-width="2"/>
<path d="M26.3145 19.3187H20.7589C19.2248 19.3187 17.9811 18.0751 17.9811 16.5409C17.9811 15.0068 19.2248 13.7632 20.7589 13.7632H26.3145" stroke="white" stroke-width="2"/>
</g>
</svg>
