<svg width="24" height="24" viewBox="0 0 24 24" fill="none" xmlns="http://www.w3.org/2000/svg">
<path d="M12.5056 6.331L13.9024 4.93422C14.5755 4.26222 15.4693 3.89284 16.4192 3.89284C17.369 3.89284 18.2639 4.26332 18.9359 4.9353C19.609 5.6073 19.9762 6.50008 19.9762 7.45208C19.9762 8.40408 19.6069 9.29793 18.9359 9.96886L17.5392 11.3656C16.8672 12.0376 16.8672 13.1296 17.5392 13.8016C17.8644 14.1269 18.2973 14.3067 18.7572 14.3067C19.217 14.3067 19.65 14.1279 19.9752 13.8016L21.372 12.4049C24.1031 9.67378 24.1031 5.23048 21.372 2.49808C20.0484 1.17453 18.2897 0.446533 16.4191 0.446533C14.5485 0.446533 12.7888 1.17561 11.4663 2.49808L10.0695 3.89486C9.74429 4.22009 9.56445 4.65301 9.56445 5.11287C9.56445 5.57273 9.74322 6.00673 10.0695 6.33089C10.72 6.98136 11.8552 6.98147 12.5056 6.331Z" fill="white"/>
<path d="M11.3658 17.5374L9.96905 18.9342C9.29597 19.6062 8.40211 19.9755 7.45226 19.9755C6.50242 19.9755 5.60749 19.6051 4.93548 18.9331C4.2624 18.2611 3.89518 17.3683 3.89518 16.4163C3.89518 15.4643 4.26455 14.5705 4.93548 13.8995L6.33226 12.5028C7.00426 11.8307 7.00426 10.7388 6.33226 10.0667C5.66025 9.39474 4.56826 9.39474 3.89626 10.0667L2.49948 11.4635C-0.231598 14.1946 -0.231598 18.6379 2.49948 21.3703C3.82303 22.6939 5.58174 23.4218 7.45232 23.4218C9.32296 23.4218 11.0827 22.6928 12.4052 21.3703L13.8019 19.9735C14.1272 19.6483 14.307 19.2154 14.307 18.7555C14.307 18.2957 14.1282 17.8617 13.8019 17.5375C13.1299 16.8655 12.0378 16.8654 11.3658 17.5374Z" fill="white"/>
<path d="M18.4855 19.4327C18.2906 19.016 17.946 18.6993 17.5131 18.5421C17.0812 18.3849 16.6139 18.4043 16.196 18.5992C15.3355 19.0009 14.9608 20.0283 15.3625 20.8888L16.0916 22.4503C16.2865 22.8671 16.6311 23.1837 17.0629 23.3409C17.2557 23.4109 17.4549 23.4465 17.6531 23.4465C17.9008 23.4465 18.1485 23.3926 18.38 23.2849C18.7968 23.09 19.1134 22.7454 19.2706 22.3125C19.4279 21.8796 19.4074 21.4122 19.2136 20.9954L18.4856 19.4339L18.4855 19.4327Z" fill="white"/>
<path d="M23.3414 17.0615C23.1842 16.6286 22.8675 16.284 22.4508 16.0902L20.8892 15.3611C20.0277 14.9605 19.0013 15.3331 18.5997 16.1946C18.4047 16.6125 18.3853 17.0798 18.5426 17.5117C18.6998 17.9446 19.0164 18.2892 19.4332 18.4842L20.9948 19.2121C21.2263 19.3198 21.474 19.3737 21.7217 19.3737C21.9209 19.3737 22.1201 19.3381 22.3118 19.2681C22.7448 19.1109 23.0894 18.7943 23.2843 18.3775C23.4792 17.9597 23.4986 17.4923 23.3414 17.0604L23.3414 17.0615Z" fill="white"/>
<path d="M5.41077 4.46045C5.60569 4.87721 5.9503 5.19385 6.38322 5.35108C6.57599 5.42108 6.77523 5.45662 6.97337 5.45662C7.22107 5.45662 7.46877 5.40277 7.7003 5.29508C8.11706 5.10015 8.4337 4.75554 8.59092 4.32262C8.74816 3.8897 8.72769 3.42232 8.53385 3.00555L7.80478 1.44399C7.60985 1.02723 7.26524 0.710592 6.8334 0.553364C6.40155 0.396133 5.93417 0.415517 5.51632 0.610441C4.65586 1.01213 4.28108 2.03953 4.68279 2.89999L5.41079 4.46155L5.41077 4.46045Z" fill="white"/>
<path d="M1.443 7.80428L3.00456 8.53336C3.23609 8.64105 3.48379 8.69489 3.73148 8.69489C3.93071 8.69489 4.12994 8.65936 4.32163 8.58936C4.75455 8.43213 5.09917 8.11549 5.29408 7.69873C5.48901 7.28089 5.50839 6.8135 5.35116 6.38166C5.19393 5.94873 4.8773 5.60412 4.46053 5.4092L2.89897 4.68121C2.03743 4.28059 1.0111 4.65321 0.609418 5.51474C0.414495 5.93258 0.39511 6.39996 0.552341 6.83181C0.709572 7.26473 1.0262 7.60935 1.44297 7.80319L1.443 7.80428Z" fill="white"/>
</svg>
