<svg width="32" height="32" viewBox="0 0 32 32" fill="none" xmlns="http://www.w3.org/2000/svg">
<g transform="translate(5, 1.5) scale(0.95)">
<path d="M13.4302 1.5686H7.17285C4.34442 1.5686 2.93021 1.5686 2.05153 2.44728C1.17285 3.32596 1.17285 4.74018 1.17285 7.5686V22.5686C1.17285 25.397 1.17285 26.8112 2.05153 27.6899C2.93021 28.5686 4.34442 28.5686 7.17285 28.5686H16.1729C19.0013 28.5686 20.4155 28.5686 21.2942 27.6899C22.1729 26.8112 22.1729 25.397 22.1729 22.5686V10.3112C22.1729 9.69812 22.1729 9.39156 22.0587 9.1159C21.9445 8.84024 21.7277 8.62347 21.2942 8.18992L15.5515 2.44728C15.118 2.01374 14.9012 1.79696 14.6256 1.68278C14.3499 1.5686 14.0433 1.5686 13.4302 1.5686Z" stroke="white" stroke-width="2"/>
<path d="M7.17188 16.5686L16.1719 16.5686" stroke="white" stroke-width="2" stroke-linecap="round"/>
<path d="M7.17188 22.5686L13.1719 22.5686" stroke="white" stroke-width="2" stroke-linecap="round"/>
<path d="M13.1729 1.5686V7.5686C13.1729 8.98282 13.1729 9.68992 13.6122 10.1293C14.0515 10.5686 14.7586 10.5686 16.1729 10.5686H22.1729" stroke="white" stroke-width="2"/>
</g>
</svg>
