<svg width="35" height="34" viewBox="0 0 35 34" fill="none" xmlns="http://www.w3.org/2000/svg">
<path d="M30.9055 7.09023H31.2539C32.177 7.09023 33.0148 7.46572 33.6207 8.07303C34.228 8.68034 34.6035 9.51811 34.6035 10.4412V30.1857C34.6035 31.1089 34.228 31.9466 33.6207 32.5539C33.0134 33.1612 32.1756 33.5367 31.2539 33.5367H30.9055C29.9823 33.5367 29.1446 33.1612 28.5372 32.5539C27.9299 31.9466 27.5544 31.1088 27.5544 30.1857V10.4412C27.5544 9.51807 27.9299 8.68034 28.5372 8.07303C29.1446 7.46572 29.9823 7.09023 30.9055 7.09023ZM27.7157 0.460168C27.9801 0.109075 28.4789 0.0399463 28.83 0.305631C29.1811 0.569973 29.2503 1.06883 28.9846 1.41992L21.5341 11.3034C20.981 12.0368 20.1813 12.4787 19.3367 12.6007C18.4935 12.7227 17.6029 12.5235 16.8655 11.9758L12.6049 8.81724C12.2565 8.55967 11.8444 8.44445 11.4445 8.4702C11.0433 8.4946 10.6515 8.66134 10.3384 8.95959L3.0996 15.9016C2.78375 16.2053 2.28081 16.1958 1.9758 15.8799C1.67215 15.5641 1.68164 15.0612 1.99749 14.7575L9.23625 7.81546C9.82999 7.24476 10.5783 6.9316 11.3428 6.88416C12.1074 6.83671 12.8882 7.05226 13.5484 7.54161L17.8089 10.7015C18.1953 10.9876 18.6643 11.0906 19.1103 11.0269C19.5536 10.9632 19.9725 10.73 20.2626 10.3464L27.713 0.462872L27.7157 0.460168ZM3.97662 21.827H4.325C5.24818 21.827 6.08592 22.2025 6.69323 22.8098C7.30053 23.4171 7.67602 24.2549 7.67602 25.1766V30.1829C7.67602 31.1061 7.30053 31.9439 6.69323 32.5512C6.08592 33.1585 5.24815 33.534 4.325 33.534H3.97662C3.05344 33.534 2.2157 33.1585 1.60975 32.5512C1.00244 31.9439 0.626953 31.1061 0.626953 30.1829V25.1766C0.626953 24.2535 1.00244 23.4157 1.60975 22.8098C2.21706 22.2025 3.05483 21.827 3.97662 21.827ZM4.325 23.4198H3.97662C3.49268 23.4198 3.05344 23.6177 2.7349 23.9363C2.41633 24.2548 2.21841 24.6941 2.21841 25.178V30.1843C2.21841 30.6682 2.41633 31.1075 2.7349 31.426C3.05347 31.7446 3.49268 31.9425 3.97662 31.9425H4.325C4.80894 31.9425 5.24818 31.7446 5.56672 31.426C5.88529 31.1074 6.08321 30.6682 6.08321 30.1843V25.178C6.08321 24.6941 5.8853 24.2548 5.56672 23.9363C5.24816 23.6177 4.80894 23.4198 4.325 23.4198ZM12.9519 14.5868H13.3003C14.2235 14.5868 15.0612 14.9623 15.6685 15.5696C16.2758 16.1769 16.6513 17.0146 16.6513 17.9364V30.1829C16.6513 31.106 16.2758 31.9438 15.6685 32.5511C15.0612 33.1584 14.2234 33.5339 13.3003 33.5339H12.9519C12.0287 33.5339 11.191 33.1584 10.585 32.5511C9.97772 31.9438 9.60223 31.106 9.60223 30.1829V17.9364C9.60223 17.0133 9.97772 16.1755 10.585 15.5696C11.1923 14.9623 12.0288 14.5868 12.9519 14.5868ZM13.3003 16.1796H12.9519C12.468 16.1796 12.0287 16.3775 11.7102 16.6961C11.3916 17.0146 11.1937 17.4538 11.1937 17.9378V30.1842C11.1937 30.6682 11.3916 31.1074 11.7102 31.4259C12.0287 31.7445 12.468 31.9424 12.9519 31.9424H13.3003C13.7842 31.9424 14.2235 31.7445 14.542 31.4259C14.8606 31.1074 15.0585 30.6682 15.0585 30.1842V17.9378C15.0585 17.4538 14.8606 17.0146 14.542 16.6961C14.2234 16.3775 13.7842 16.1796 13.3003 16.1796ZM21.9272 16.5497H22.2756C23.1987 16.5497 24.0365 16.9265 24.6424 17.5324C25.2497 18.1398 25.6252 18.9775 25.6252 19.9007V30.1843C25.6252 31.1075 25.2497 31.9452 24.6424 32.5525C24.0351 33.1598 23.1987 33.5353 22.2756 33.5353H21.9272C21.004 33.5353 20.1663 33.1598 19.5603 32.5525C18.953 31.9452 18.5775 31.1074 18.5775 30.1843V19.9007C18.5775 18.9775 18.953 18.1398 19.5603 17.5324C20.1676 16.9251 21.004 16.5497 21.9272 16.5497ZM22.2756 18.1425H21.9272C21.4432 18.1425 21.004 18.3404 20.6855 18.659C20.3669 18.9775 20.169 19.4167 20.169 19.9007V30.1843C20.169 30.6682 20.3669 31.1075 20.6855 31.426C21.004 31.7446 21.4432 31.9425 21.9272 31.9425H22.2756C22.7595 31.9425 23.1987 31.7446 23.5173 31.426C23.8358 31.1074 24.0338 30.6682 24.0338 30.1843V19.9007C24.0338 19.4167 23.8358 18.9775 23.5173 18.659C23.1987 18.3404 22.7595 18.1425 22.2756 18.1425ZM31.2523 8.68165H30.9039C30.4199 8.68165 29.9807 8.87957 29.6622 9.19814C29.3436 9.51671 29.1457 9.95592 29.1457 10.4399V30.1843C29.1457 30.6682 29.3436 31.1075 29.6622 31.426C29.9807 31.7446 30.4199 31.9425 30.9039 31.9425H31.2523C31.7362 31.9425 32.1754 31.7446 32.494 31.426C32.8125 31.1074 33.0105 30.6682 33.0105 30.1843V10.4399C33.0105 9.95592 32.8125 9.51668 32.494 9.19814C32.1754 8.87958 31.7362 8.68165 31.2523 8.68165Z" fill="white"/>
</svg>
