<svg width="6" height="27" viewBox="0 0 6 27" fill="none" xmlns="http://www.w3.org/2000/svg">
<path d="M2.94682 18.2948C2.40775 18.2933 1.89015 18.0834 1.5023 17.7091C1.11445 17.3347 0.886406 16.8248 0.86589 16.2861L0.37456 2.50723C0.363886 2.227 0.409764 1.9475 0.50946 1.68539C0.609156 1.42328 0.760624 1.18393 0.954832 0.981631C1.14904 0.779332 1.382 0.618224 1.63983 0.507918C1.89765 0.397611 2.17506 0.340367 2.45549 0.3396H3.43092C3.71135 0.340367 3.98875 0.397611 4.24657 0.507918C4.5044 0.618224 4.73737 0.779332 4.93157 0.981631C5.12578 1.18393 5.27725 1.42328 5.37695 1.68539C5.47664 1.9475 5.52252 2.227 5.51185 2.50723L5.02051 16.2861C5.00005 16.8236 4.77302 17.3324 4.38672 17.7066C4.00041 18.0808 3.48463 18.2915 2.94682 18.2948Z" fill="white"/>
<path d="M2.9472 26.3396C4.56734 26.3396 5.88073 25.0262 5.88073 23.4061C5.88073 21.7859 4.56734 20.4725 2.9472 20.4725C1.32706 20.4725 0.0136719 21.7859 0.0136719 23.4061C0.0136719 25.0262 1.32706 26.3396 2.9472 26.3396Z" fill="white"/>
</svg>
