<svg width="32" height="32" viewBox="0 0 32 32" fill="none" xmlns="http://www.w3.org/2000/svg">
<g transform="translate(2, 1.5) scale(1.0)">
<path d="M14.0488 26.4215L2.22853 11.6462C1.89601 11.2305 1.72975 11.0227 1.68508 10.7722C1.64041 10.5218 1.72458 10.2693 1.8929 9.76432L3.76213 4.15663C4.20214 2.83659 4.42215 2.17657 4.94593 1.79905C5.4697 1.42154 6.16542 1.42154 7.55687 1.42154H20.5408C21.9322 1.42154 22.628 1.42154 23.1517 1.79905C23.6755 2.17657 23.8955 2.83659 24.3355 4.15663L26.2048 9.76432C26.3731 10.2693 26.4572 10.5218 26.4126 10.7722C26.3679 11.0227 26.2016 11.2305 25.8691 11.6462L14.0488 26.4215ZM14.0488 26.4215L19.5176 9.23404M14.0488 26.4215L8.58008 9.23404M25.7676 10.7965L19.5176 9.23404M19.5176 9.23404L17.1738 2.98404M19.5176 9.23404H8.58008M10.9238 2.98404L8.58008 9.23404M8.58008 9.23404L2.33008 10.7965" stroke="white" stroke-width="2" stroke-linecap="round"/>
</g>
</svg>
