<svg width="32" height="32" viewBox="0 0 32 32" fill="none" xmlns="http://www.w3.org/2000/svg">
<g transform="translate(2.5, 1.5) scale(1.0)">
<path d="M13.8154 1.5686L13.8154 0.568604H13.8154V1.5686ZM23.2656 11.0188L24.2656 11.0188V11.0188H23.2656ZM14.8633 22.6292L15.35 23.5027L15.35 23.5027L14.8633 22.6292ZM12.7676 22.6292L12.2809 23.5027L12.2809 23.5027L12.7676 22.6292ZM4.36523 11.0188H3.36523V11.0188L4.36523 11.0188ZM13.8154 6.96802L13.8155 5.96802H13.8154V6.96802ZM9.76465 11.0188H8.76465V11.0189L9.76465 11.0188ZM13.8154 15.0686V16.0686H13.8155L13.8154 15.0686ZM17.8652 11.0188L18.8652 11.0189V11.0188H17.8652ZM13.8154 1.5686L13.8154 2.5686C18.4823 2.56862 22.2656 6.35198 22.2656 11.0188H23.2656H24.2656C24.2656 5.2474 19.5868 0.568627 13.8154 0.568604L13.8154 1.5686ZM23.2656 11.0188L22.2656 11.0188C22.2655 13.8226 20.9422 16.1518 19.2516 17.987C17.5589 19.8245 15.5594 21.0966 14.3766 21.7556L14.8633 22.6292L15.35 23.5027C16.6279 22.7908 18.8294 21.3972 20.7226 19.3421C22.618 17.2846 24.2655 14.494 24.2656 11.0188L23.2656 11.0188ZM14.8633 22.6292L14.3766 21.7556C14.0216 21.9534 13.6093 21.9534 13.2543 21.7556L12.7676 22.6292L12.2809 23.5027C13.241 24.0376 14.3898 24.0376 15.35 23.5027L14.8633 22.6292ZM12.7676 22.6292L13.2543 21.7556C12.0715 21.0966 10.072 19.8245 8.37925 17.987C6.68866 16.1518 5.36533 13.8226 5.36523 11.0188L4.36523 11.0188L3.36523 11.0188C3.36536 14.4941 5.01289 17.2846 6.90827 19.3421C8.80151 21.3973 11.003 22.7908 12.2809 23.5027L12.7676 22.6292ZM4.36523 11.0188H5.36523C5.36523 6.35196 9.14859 2.5686 13.8154 2.5686V1.5686V0.568604C8.04402 0.568604 3.36523 5.24739 3.36523 11.0188H4.36523ZM13.8154 6.96802V5.96802C11.0264 5.96802 8.76465 8.22975 8.76465 11.0188H9.76465H10.7646C10.7646 9.33432 12.1309 7.96802 13.8154 7.96802V6.96802ZM9.76465 11.0188L8.76465 11.0189C8.76489 13.8079 11.0267 16.0686 13.8154 16.0686V15.0686V14.0686C12.1308 14.0686 10.7648 12.7029 10.7646 11.0187L9.76465 11.0188ZM13.8154 15.0686L13.8155 16.0686C16.6042 16.0684 18.865 13.8076 18.8652 11.0189L17.8652 11.0188L16.8652 11.0187C16.8651 12.703 15.4996 14.0685 13.8154 14.0686L13.8154 15.0686ZM17.8652 11.0188H18.8652C18.8652 8.23009 16.6046 5.96823 13.8155 5.96802L13.8154 6.96802L13.8154 7.96802C15.4995 7.96815 16.8652 9.33418 16.8652 11.0188H17.8652Z" fill="white"/>
<path d="M24.3374 22.4936C25.4038 23.1093 25.9652 23.8077 25.9652 24.5186C25.9652 25.2295 25.4038 25.9279 24.3374 26.5436C23.271 27.1593 21.7372 27.6706 19.8902 28.026C18.0431 28.3815 15.9479 28.5686 13.8151 28.5686C11.6823 28.5686 9.58712 28.3815 7.74008 28.026C5.89303 27.6706 4.35923 27.1593 3.29284 26.5436C2.22645 25.9279 1.66504 25.2295 1.66504 24.5186C1.66504 23.8077 2.22645 23.1093 3.29284 22.4936" stroke="white" stroke-width="2" stroke-linecap="round"/>
</g>
</svg>
