<svg width="32" height="32" viewBox="0 0 32 32" fill="none" xmlns="http://www.w3.org/2000/svg">
<g transform="translate(3.5, 2) scale(1.0)">
<path d="M1.21191 13.7799C1.21191 11.8942 1.21191 10.9514 1.7977 10.3656C2.38349 9.77986 3.3263 9.77986 5.21191 9.77986H19.4341C21.3198 9.77986 22.2626 9.77986 22.8484 10.3656C23.4341 10.9514 23.4341 11.8942 23.4341 13.7799V20.4465C23.4341 23.275 23.4341 24.6892 22.5555 25.5678C21.6768 26.4465 20.2626 26.4465 17.4341 26.4465H7.21191C4.38349 26.4465 2.96927 26.4465 2.09059 25.5678C1.21191 24.6892 1.21191 23.275 1.21191 20.4465V13.7799Z" stroke="white" stroke-width="2"/>
<path d="M17.8787 8.39098V7.00209C17.8787 6.48618 17.8787 6.22823 17.8597 6.01075C17.6482 3.59352 15.7317 1.67704 13.3145 1.46556C13.097 1.44653 12.839 1.44653 12.3231 1.44653C11.8072 1.44653 11.5493 1.44653 11.3318 1.46556C8.91456 1.67704 6.99809 3.59352 6.7866 6.01075C6.76758 6.22823 6.76758 6.48618 6.76758 7.00209V8.39098" stroke="white" stroke-width="2" stroke-linecap="round"/>
<circle cx="12.3227" cy="18.1132" r="1.77778" stroke="white" stroke-width="2"/>
</g>
</svg>
