<svg width="40" height="34" viewBox="0 0 40 34" fill="none" xmlns="http://www.w3.org/2000/svg">
<path d="M10.4248 8.07956C12.3477 8.07956 13.9052 6.52162 13.9052 4.60044C13.9052 2.67885 12.3477 1.12091 10.4248 1.12091C8.5041 1.12091 6.94531 2.67927 6.94531 4.60044C6.94531 6.52162 8.5041 8.07956 10.4248 8.07956Z" stroke="white" stroke-width="1.27006"/>
<path d="M18.8636 4.3054C18.2286 4.01498 17.4767 4.29397 17.1859 4.92942C17.0999 5.11993 15.7973 7.71889 13.5941 9.42669C12.7055 8.98302 11.6603 8.71842 10.4236 8.71842C9.1883 8.71842 8.14262 8.98302 7.25443 9.42669C5.05088 7.71931 3.74907 5.12035 3.66271 4.92942C3.37144 4.29397 2.62041 4.01498 1.98539 4.3054C1.34993 4.59624 1.0701 5.34684 1.36136 5.98272C2.25083 7.92802 4.07971 10.9668 6.59781 12.8093V21.4736L7.14436 32.1709C7.15875 32.4677 7.41192 32.7085 7.70869 32.7085H8.93133C9.22768 32.7085 9.48084 32.4681 9.49608 32.1709L10.0418 21.4736H10.8072L11.3533 32.1709C11.3677 32.4677 11.6222 32.7085 11.9181 32.7085H13.1403C13.4375 32.7085 13.6907 32.4681 13.7051 32.1709L14.2508 21.4736V12.8093C16.7689 10.9668 18.5982 7.92802 19.488 5.98272C19.7785 5.34684 19.4986 4.59582 18.8636 4.3054Z" stroke="white" stroke-width="1.27006"/>
<path d="M30.21 8.08041C32.1317 8.08041 33.6895 6.52257 33.6895 4.60087C33.6895 2.67918 32.1317 1.12134 30.21 1.12134C28.2883 1.12134 26.7305 2.67918 26.7305 4.60087C26.7305 6.52257 28.2883 8.08041 30.21 8.08041Z" stroke="white" stroke-width="1.27006"/>
<path d="M39.2737 5.79978C39.5091 5.14189 39.1657 4.41796 38.5083 4.18258C37.8491 3.94804 37.1248 4.29095 36.8902 4.94884C36.8737 4.99795 35.6663 7.6655 33.3298 9.39362C32.426 8.97069 31.3943 8.7188 30.2114 8.7188C29.029 8.7188 27.996 8.97069 27.0917 9.39362C24.7544 7.66592 23.5483 4.99795 23.5318 4.94884C23.2959 4.29095 22.5703 3.94804 21.9145 4.18258C21.2562 4.41838 20.9137 5.14232 21.1479 5.79978C21.904 7.91697 23.7599 10.8356 26.5731 12.5713V16.5851L23.9191 23.2178C23.8112 23.4896 23.9606 23.7089 24.2523 23.7089H26.6222L27.0545 32.17C27.0701 32.4668 27.3237 32.7076 27.6201 32.7076H28.8647C29.1615 32.7076 29.4155 32.4672 29.4312 32.17L29.863 23.7089H30.5598L30.9925 32.17C31.0065 32.4668 31.2596 32.7076 31.5564 32.7076H32.8015C33.0995 32.7076 33.3518 32.4672 33.3662 32.17L33.7985 23.7089H36.1697C36.4618 23.7089 36.6108 23.4891 36.5016 23.2178L33.8484 16.5851V12.5713C36.6612 10.8356 38.518 7.91697 39.2737 5.79978Z" stroke="white" stroke-width="1.27006"/>
</svg>
