<svg width="32" height="32" viewBox="0 0 32 32" fill="none" xmlns="http://www.w3.org/2000/svg">
<g transform="translate(-1, 0.5) scale(1.0)">
<path d="M16.8219 3.87336L14.2839 8.10343C13.3814 9.60746 12.9302 10.3595 12.9302 11.1904C12.9302 12.0214 13.3814 12.7734 14.2839 14.2774L16.3932 17.7929C16.5847 18.112 16.6804 18.2716 16.8219 18.2716C16.9635 18.2716 17.0592 18.112 17.2507 17.7929L19.36 14.2774C20.2624 12.7734 20.7136 12.0214 20.7136 11.1904C20.7136 10.3595 20.2624 9.60746 19.36 8.10344L16.8219 3.87336ZM16.8219 3.87336V0.946533" stroke="white" stroke-width="2"/>
<path d="M28.7659 16.4559L23.8334 16.3729C22.0797 16.3434 21.2028 16.3287 20.4832 16.7442C19.7636 17.1596 19.3379 17.9264 18.4866 19.4599L16.4967 23.0444C16.3161 23.3698 16.2257 23.5324 16.2965 23.655C16.3673 23.7776 16.5533 23.7807 16.9254 23.787L21.0247 23.856C22.7784 23.8855 23.6553 23.9002 24.3749 23.4847C25.0945 23.0693 25.5202 22.3025 26.3715 20.769L28.7659 16.4559ZM28.7659 16.4559L31.3006 14.9925" stroke="white" stroke-width="2"/>
<path d="M4.88158 16.4559L9.81408 16.3729C11.5678 16.3434 12.4447 16.3287 13.1643 16.7442C13.8839 17.1596 14.3096 17.9264 15.1609 19.4599L17.1508 23.0444C17.3314 23.3698 17.4217 23.5324 17.3509 23.655C17.2802 23.7776 17.0941 23.7807 16.722 23.787L12.6228 23.856C10.869 23.8855 9.99218 23.9002 9.27256 23.4847C8.55294 23.0693 8.12728 22.3025 7.27597 20.769L4.88158 16.4559ZM4.88158 16.4559L2.34685 14.9925" stroke="white" stroke-width="2"/>
<path d="M16.8232 19.9709V30.9465" stroke="white" stroke-width="2"/>
</g>
</svg>
