<svg width="17" height="17" viewBox="0 0 17 17" fill="none" xmlns="http://www.w3.org/2000/svg">
  <path d="M8.34277 0C12.9504 0 16.6854 3.73517 16.6855 8.34277C16.6855 12.9505 12.9505 16.6855 8.34277 16.6855C3.73517 16.6854 0 12.9504 0 8.34277C0.000115447 3.73524 3.73524 0.00011545 8.34277 0ZM8.34277 2C4.83981 2.00012 2.00012 4.83981 2 8.34277C2 11.8458 4.83974 14.6854 8.34277 14.6855C11.8459 14.6855 14.6855 11.8459 14.6855 8.34277C14.6854 4.83974 11.8458 2 8.34277 2ZM8.35547 2.27832C8.90761 2.27849 9.35547 2.72614 9.35547 3.27832V7.79395L13.1143 10.2227C13.5781 10.5224 13.7109 11.1416 13.4111 11.6055C13.1114 12.069 12.493 12.2018 12.0293 11.9023L7.35547 8.88281V3.27832C7.35547 2.72604 7.80318 2.27832 8.35547 2.27832Z" fill="#F6B700"/>
</svg>
