<svg width="12" height="13" viewBox="0 0 12 13" fill="none" xmlns="http://www.w3.org/2000/svg">
  <path d="M9.42303 0.435059C9.99059 -0.145106 10.8593 -0.144872 11.4269 0.435059C11.991 1.01166 11.991 1.88873 11.4269 2.46533L7.9201 6.05029L11.4269 9.63525C11.991 10.2119 11.991 11.0879 11.4269 11.6646C11.1425 11.9553 10.7263 12.1001 10.425 12.1001C10.1237 12.1 9.70736 11.9552 9.42303 11.6646L5.92499 8.08936L2.42694 11.6646C2.29707 11.7973 2.15535 11.9096 1.98553 11.9868C1.81414 12.0647 1.6296 12.1001 1.42499 12.1001C1.22053 12.1001 1.0367 12.0646 0.865417 11.9868C0.695534 11.9096 0.55295 11.7974 0.423035 11.6646C-0.140597 11.088 -0.140764 10.2117 0.423035 9.63525L3.93085 6.05029L0.423035 2.46533C-0.141018 1.88874 -0.140991 1.01166 0.423035 0.435059C0.990588 -0.145106 1.85927 -0.144872 2.42694 0.435059L5.92499 4.01123L9.42303 0.435059ZM9.91132 0.435059H9.91229H9.91132Z" fill="#FE4D57"/>
</svg>
