<svg width="169" height="170" viewBox="0 0 169 170" fill="none" xmlns="http://www.w3.org/2000/svg">
<g opacity="0.6" clip-path="url(#clip0_260_714)">
<path fill-rule="evenodd" clip-rule="evenodd" d="M5.59221 5.73804C7.52137 5.74613 9.44271 5.75422 11.3641 5.77041C11.3875 5.92418 11.4031 6.07795 11.4265 6.23172C8.66168 6.6121 5.88901 6.99248 3.12415 7.37286C3.13196 7.53472 3.14758 7.68849 3.1632 7.85035C3.59277 7.93938 4.03015 8.02031 4.46753 8.10934C4.46753 8.21455 4.45191 8.31976 4.45191 8.41688C3.40532 8.55446 2.35874 8.70014 1.44493 8.82963C1.45274 10.0193 1.46055 11.1686 1.46836 12.6901C-0.507656 10.5535 -0.413932 8.17408 1.3512 6.32074C2.76487 6.12651 4.18635 5.93227 5.60003 5.73804H5.59221Z" fill="#1A6650" fill-opacity="0.22"/>
<path fill-rule="evenodd" clip-rule="evenodd" d="M87.4053 67.2299C90.0062 65.9269 92.5836 64.5915 95.2 63.3209C100.488 60.7473 105.806 58.2465 111.047 55.5919C111.586 55.3168 112.063 54.1513 111.992 53.4634C111.032 43.5817 109.969 33.7161 108.931 23.8505C108.634 21.0017 108.212 18.1529 108.04 15.296C107.923 13.3213 107.205 12.5201 105.244 12.1478C96.5278 10.5049 87.8505 8.64346 79.1654 6.87105C71.4254 5.29289 63.701 3.58523 55.9219 2.29032C54.2973 2.01515 52.3916 3.1401 50.6968 3.84421C47.0649 5.35763 43.5191 7.08957 39.8794 8.5868C36.8334 9.83315 33.4672 10.4563 30.6789 12.1397C28.1561 13.6693 25.4147 14.5029 22.8373 15.7978C18.1745 18.1529 13.418 20.3057 8.73183 22.6123C7.77116 23.0898 6.66209 23.6967 6.14661 24.5708C5.56864 25.5339 5.27185 26.9097 5.38901 28.0509C6.42778 37.8193 7.61495 47.5716 8.71621 57.332C9.02862 60.0998 9.23169 62.8839 9.44257 65.6679C9.53629 66.8657 9.88776 67.5132 11.2155 67.7721C20.2052 69.5284 29.1793 71.3817 38.1455 73.2674C39.0047 73.4454 39.7857 74.0363 40.6058 74.4328C40.4808 74.708 40.3559 74.9912 40.2231 75.2745C33.8577 74.0848 27.4922 72.9113 21.1268 71.7135C17.2451 70.977 13.3477 70.3053 9.49724 69.3989C8.79431 69.2289 7.90393 68.1525 7.78678 67.3837C6.72457 60.1565 5.75609 52.9131 4.88133 45.6697C4.07687 39.0009 3.45204 32.2998 2.65539 25.631C2.45232 23.9315 3.06934 23.1059 4.50644 22.4747C13.6211 18.4767 22.7201 14.4463 31.7957 10.3592C38.0284 7.55088 44.3079 4.82348 50.3843 1.69143C53.9771 -0.161909 57.3355 0.825457 60.8033 1.4891C65.4661 2.38744 70.0976 3.47192 74.7526 4.41882C82.2817 5.95653 89.8187 7.49423 97.3635 8.951C100.933 9.64701 104.557 10.084 108.118 10.8205C108.782 10.9581 109.712 11.905 109.782 12.5686C110.782 21.5278 111.602 30.5112 112.562 39.4784C113.125 44.6904 113.914 49.8781 114.437 55.0982C114.499 55.7457 113.765 56.8545 113.133 57.1458C109.095 58.9911 104.971 60.6178 100.917 62.4226C99.2692 63.1509 97.7774 64.2354 96.1451 64.9881C94.091 65.935 91.9978 66.8171 89.85 67.5132C89.1236 67.7479 88.1942 67.3351 87.3585 67.2137L87.4131 67.2461L87.4053 67.2299Z" fill="#1A6650" fill-opacity="0.22"/>
<path d="M40.5593 75.9381L33.4206 74.6108C29.289 73.842 25.1495 73.0731 21.0178 72.2962L18.7684 71.8753C15.6756 71.3007 12.4811 70.7099 9.3648 69.9734C8.45099 69.7549 7.35755 68.4924 7.20134 67.4645C6.13132 60.1726 5.15503 52.8564 4.28809 45.7263C3.86633 42.2543 3.49143 38.7257 3.12435 35.3104C2.7885 32.154 2.43704 28.8925 2.06214 25.6876C1.83564 23.81 2.49171 22.677 4.27246 21.9C14.4806 17.4164 23.4078 13.4588 31.554 9.78453C32.624 9.29894 33.694 8.82145 34.7718 8.34395C39.8485 6.06977 45.0971 3.72275 50.1191 1.13294C53.5088 -0.623279 56.7189 0.0322678 59.8196 0.663535C60.1788 0.736373 60.5459 0.809212 60.9052 0.88205C63.6154 1.40811 66.349 1.99891 69.0045 2.57352C70.9571 2.99437 72.9097 3.41521 74.8623 3.81987C82.2274 5.3252 89.8503 6.87909 97.4654 8.35204C99.1055 8.66768 100.785 8.93475 102.401 9.19373C104.315 9.50127 106.291 9.81691 108.22 10.2135C109.072 10.3915 110.243 11.4922 110.352 12.4877C110.907 17.4892 111.422 22.5798 111.914 27.5005C112.313 31.4661 112.711 35.4318 113.133 39.3974C113.391 41.8254 113.711 44.2857 114.015 46.6651C114.367 49.4006 114.726 52.2251 115.015 55.0173C115.117 55.9884 114.179 57.3157 113.367 57.6799C111.126 58.6996 108.829 59.6789 106.603 60.6177C104.807 61.3785 102.956 62.1554 101.152 62.9647C100.332 63.3289 99.5195 63.8064 98.7307 64.2596C97.9809 64.6967 97.1998 65.1499 96.3876 65.5303C93.982 66.639 91.9591 67.4484 90.0299 68.0796C89.3739 68.29 88.6866 68.1201 88.0227 67.9582C87.8587 67.9178 87.7025 67.8773 87.5384 67.8449L87.3822 67.9258L84.7189 66.202L87.3666 66.5905C88.1008 66.2182 88.835 65.8459 89.5691 65.4736C91.3655 64.5672 93.1541 63.6527 94.9583 62.7786C96.6297 61.9612 98.3011 61.16 99.9803 60.3506C103.542 58.6349 107.22 56.8625 110.798 55.0496C111.071 54.912 111.469 54.0218 111.422 53.5281C110.618 45.3054 109.735 36.9452 108.884 28.8682L108.361 23.9152C108.267 23.0007 108.158 22.0781 108.048 21.1635C107.822 19.2616 107.588 17.2869 107.47 15.3364C107.369 13.6531 106.853 13.0704 105.151 12.7466C99.0431 11.5974 92.8495 10.3187 86.8668 9.07234C84.2659 8.53009 81.6651 7.99594 79.0642 7.4618C77.1898 7.08142 75.3231 6.69294 73.4564 6.30447C67.6924 5.10668 61.7331 3.86843 55.8441 2.88106C54.7272 2.69492 53.3448 3.31809 52.017 3.92508C51.65 4.09504 51.2907 4.2569 50.9314 4.40258C49.1975 5.12287 47.4402 5.916 45.7453 6.67676C43.9099 7.50226 42.0042 8.36014 40.1063 9.13708C38.9582 9.60649 37.7632 9.99496 36.5994 10.3672C34.5844 11.0147 32.6865 11.6298 30.9838 12.6495C29.4452 13.5802 27.8284 14.2601 26.2586 14.9237C25.212 15.3607 24.1341 15.8139 23.1032 16.3319C20.4711 17.6592 17.7687 18.946 15.1601 20.1843C13.0981 21.1635 11.044 22.1428 8.99772 23.1464C8.02924 23.6239 7.08419 24.158 6.65462 24.8702C6.14695 25.72 5.87358 26.9582 5.98293 27.9618C6.639 34.1288 7.36536 40.3929 8.06829 46.4547C8.48223 50.048 8.90399 53.6414 9.31013 57.2429C9.60692 59.8974 9.80999 62.6005 10.0053 65.2146L10.0365 65.6031C10.1068 66.5743 10.3177 66.9628 11.333 67.157C21.2443 69.0913 30.9369 71.1146 38.2708 72.6523C38.9425 72.7979 39.5439 73.1378 40.1219 73.4616C40.364 73.5992 40.6139 73.7367 40.8639 73.8581L41.395 74.1171L40.5749 75.93L40.5593 75.9381ZM30.1403 11.7512C22.5018 15.1827 14.1682 18.8813 4.73327 23.025C3.43676 23.5915 3.06967 24.2066 3.23369 25.5419C3.6164 28.7549 3.96786 32.0165 4.30371 35.1809C4.67079 38.5962 5.04569 42.1167 5.45964 45.5806C6.31877 52.6945 7.29506 60.0026 8.36508 67.2865C8.44318 67.8125 9.17735 68.6947 9.63035 68.7999C12.7232 69.5283 15.9021 70.1191 18.9793 70.6937L21.2287 71.1146C25.3604 71.8915 29.492 72.6604 33.6315 73.4292L39.5049 74.5218C38.9972 74.2304 38.513 73.9634 38.0287 73.8581C30.6948 72.3204 21.01 70.3052 11.1065 68.3629C9.27889 68.0068 8.94304 66.8737 8.85713 65.7083L8.82589 65.3198C8.63063 62.7138 8.42756 60.0269 8.13077 57.3966C7.72463 53.8033 7.31068 50.2099 6.89674 46.6165C6.19381 40.5548 5.46745 34.2826 4.81138 28.1156C4.6786 26.8449 5.00664 25.3315 5.65489 24.2551C6.24067 23.2758 7.36536 22.6284 8.49005 22.07C10.5364 21.0583 12.6061 20.079 14.668 19.0998C17.2767 17.8615 19.9712 16.5828 22.5877 15.2636C23.6499 14.7295 24.7512 14.2681 25.8134 13.8149C27.2583 13.2079 28.7501 12.5767 30.1481 11.7593L30.1403 11.7512ZM89.2801 66.9628C89.4285 66.9628 89.5535 66.9628 89.6707 66.9223C91.5529 66.3072 93.5368 65.5141 95.8955 64.4215C96.6609 64.0654 97.4107 63.6284 98.1449 63.2075C98.9572 62.7381 99.7928 62.2444 100.675 61.856C102.495 61.0467 104.354 60.2616 106.15 59.5009C108.369 58.5621 110.665 57.599 112.883 56.5792C113.32 56.385 113.875 55.4867 113.836 55.1548C113.555 52.3789 113.195 49.5625 112.844 46.8351C112.539 44.4476 112.219 41.9792 111.961 39.5431C111.532 35.5775 111.133 31.6037 110.735 27.6381C110.243 22.7174 109.728 17.6268 109.173 12.6333C109.134 12.2691 108.431 11.5084 107.97 11.4113C106.065 11.0147 104.096 10.6991 102.198 10.3996C100.566 10.1406 98.879 9.86547 97.2233 9.54983C89.6004 8.07688 81.9775 6.52299 74.6123 5.01766C72.6519 4.62109 70.6994 4.19216 68.739 3.77131C66.0991 3.1967 63.3655 2.6059 60.6709 2.08793C60.3038 2.01509 59.9367 1.94226 59.5696 1.86942C56.5314 1.24624 53.6572 0.663535 50.619 2.23361C45.5735 4.83961 40.3093 7.19472 35.217 9.47699C34.9983 9.57411 34.7718 9.67123 34.5531 9.77644C35.1077 9.5903 35.6622 9.41225 36.2089 9.2342C37.3492 8.87001 38.5286 8.48963 39.6298 8.03641C41.5121 7.26756 43.4022 6.40968 45.2299 5.59227C46.9325 4.82342 48.6898 4.03029 50.4472 3.30191C50.7908 3.16432 51.1423 3.00246 51.4937 2.8406C52.9777 2.16886 54.5242 1.46476 55.9769 1.71565C61.8893 2.70301 67.8642 3.94127 73.636 5.14715C75.5027 5.53562 77.3694 5.92409 79.2439 6.30447C81.8447 6.83862 84.4455 7.37277 87.0464 7.91501C93.0291 9.15327 99.2149 10.4401 105.315 11.5812C107.541 12.0021 108.462 13.0461 108.595 15.2879C108.712 17.206 108.939 19.1564 109.165 21.0421C109.275 21.9648 109.384 22.8874 109.485 23.81L110.009 28.763C110.86 36.8481 111.75 45.2002 112.547 53.431C112.633 54.3293 112.063 55.7618 111.274 56.1665C107.689 57.9874 104.003 59.7598 100.433 61.4756C98.7619 62.2849 97.0905 63.0861 95.4191 63.8955C93.6149 64.7695 91.8341 65.6759 90.0456 66.5824C89.78 66.72 89.5145 66.8495 89.2567 66.987L89.2801 66.9628Z" fill="#1A6650" fill-opacity="0.22"/>
<path fill-rule="evenodd" clip-rule="evenodd" d="M114.203 71.2522C113.68 70.9852 113.148 70.71 112.672 70.4753C113.836 69.2937 115.952 68.0473 115.851 67.0438C115.687 65.4737 115.609 63.9927 115.781 62.4307C115.89 61.4109 115.812 60.375 116.257 59.2905C116.921 64.5187 117.585 69.7469 118.28 75.1774C113.188 75.8734 107.994 76.5856 102.753 77.2978C104.393 75.7116 105.408 75.9705 107.361 75.9139C109.048 75.8572 110.829 74.6271 112.297 73.5264C112.86 73.1056 112.656 71.6002 112.805 70.5886C113.273 70.8152 113.734 71.0337 114.203 71.2603V71.2522Z" fill="#1A6650" fill-opacity="0.22"/>
<path fill-rule="evenodd" clip-rule="evenodd" d="M66.6067 77.3221C64.8259 79.8795 62.5531 80.3489 59.468 79.5639C53.4697 78.0343 47.4011 76.8203 41.0435 75.3959C41.5199 75.1612 42.0744 74.619 42.543 74.6918C45.6828 75.1612 48.8069 75.7439 51.9311 76.3266C55.2505 76.9417 58.5386 77.7915 61.8814 78.1799C63.4201 78.358 65.0446 77.6782 66.6301 77.3868L66.6145 77.3221H66.6067Z" fill="#1A6650" fill-opacity="0.22"/>
<path fill-rule="evenodd" clip-rule="evenodd" d="M66.6064 77.3221C66.6064 77.3221 66.6221 77.3787 66.6221 77.3868C67.1844 76.8608 67.6765 76.1405 68.3325 75.8491C73.5967 73.5426 78.9077 71.3493 84.1797 69.0589C85.3044 68.5653 86.3275 67.845 87.3976 67.2299L87.3429 67.1975C88.3348 68.7595 87.3897 69.4312 86.1401 69.9087C83.4221 70.9366 80.6572 71.8187 77.9861 72.9598C74.9479 74.2628 72.0112 75.841 68.9886 77.1764C68.2935 77.4758 67.3953 77.2816 66.5986 77.3221H66.6064Z" fill="#1A6650" fill-opacity="0.22"/>
<path fill-rule="evenodd" clip-rule="evenodd" d="M36.2165 16.8095C35.1465 17.7645 34.6232 18.6224 33.975 18.7357C32.6004 18.9865 31.3038 18.7033 31.1164 16.7852C30.968 15.3122 31.296 13.7907 32.7956 13.9688C33.85 14.0983 34.756 15.5308 36.2244 16.8095H36.2165Z" fill="#1A6650" fill-opacity="0.22"/>
<path fill-rule="evenodd" clip-rule="evenodd" d="M16.7845 67.0114C16.5971 65.5547 16.269 63.8308 16.2456 62.0989C16.2456 61.7104 17.3078 60.9577 17.8467 60.982C18.659 61.0225 19.7368 61.411 20.1352 62.0422C20.4007 62.4631 19.8384 63.669 19.3697 64.3164C18.7215 65.2228 17.8311 65.9512 16.7845 67.0114Z" fill="#1A6650" fill-opacity="0.22"/>
<path fill-rule="evenodd" clip-rule="evenodd" d="M75.5571 9.12908C74.3777 10.6101 73.8076 11.7998 72.8938 12.253C72.4798 12.4554 70.9021 11.3142 70.7225 10.5616C70.4569 9.4528 70.496 7.69659 72.3158 7.70468C73.1827 7.71277 74.0419 8.43306 75.5571 9.12098V9.12908Z" fill="#1A6650" fill-opacity="0.22"/>
<path fill-rule="evenodd" clip-rule="evenodd" d="M58.3434 9.78459C57.8435 8.78104 57.3358 7.78558 56.586 6.29643C56.4689 7.59134 56.3986 8.39256 56.3205 9.27472C55.4509 8.7028 55.3833 6.97626 56.1174 4.09509C56.9688 4.80729 57.6795 5.40619 58.5152 6.1022C58.7495 5.85131 59.0854 5.47902 59.4212 5.11483C59.6399 5.18767 59.8586 5.2686 60.0773 5.34144C59.7649 6.71728 59.4446 8.08502 59.1322 9.46086C58.8667 9.56607 58.6089 9.67938 58.3434 9.78459Z" fill="#1A6650" fill-opacity="0.22"/>
<path fill-rule="evenodd" clip-rule="evenodd" d="M48.9241 11.7108C46.1748 13.3294 45.675 13.0138 44.4722 8.72441C45.261 8.255 46.0967 7.76132 47.0808 7.18671C47.487 8.11742 47.8072 8.82153 48.0962 9.54991C48.3695 10.2136 48.6116 10.8853 48.9241 11.7189V11.7108Z" fill="#1A6650" fill-opacity="0.22"/>
<path fill-rule="evenodd" clip-rule="evenodd" d="M73.3234 66.3801C72.0894 66.6715 71.3787 66.8415 70.6679 67.0114C70.6836 67.2218 70.707 67.4404 70.7304 67.6589C71.3084 67.8288 72.0504 67.8369 72.4253 68.2173C72.9017 68.7029 73.3937 69.577 73.2844 70.1597C73.1594 70.7909 72.4253 71.5355 71.8161 71.7297C71.449 71.843 70.543 71.0904 70.3399 70.54C69.9884 69.5689 69.7697 68.4277 69.9025 67.4242C69.9884 66.7767 70.6914 66.0241 71.3006 65.7003C71.6677 65.5061 72.394 66.0483 73.3234 66.3882V66.3801Z" fill="#1A6650" fill-opacity="0.22"/>
<path fill-rule="evenodd" clip-rule="evenodd" d="M91.0765 52.7189C92.0606 54.5398 93.0525 56.3608 94.0366 58.1818C93.9507 58.3922 93.8648 58.6026 93.7789 58.813C91.8575 56.3122 90.3345 57.0244 88.7256 58.9587C89.2411 56.9435 89.7566 54.9364 90.272 52.9212C90.5454 52.8565 90.8109 52.7917 91.0843 52.727L91.0765 52.7189Z" fill="#1A6650" fill-opacity="0.22"/>
<path fill-rule="evenodd" clip-rule="evenodd" d="M21.3068 64.3244C21.0335 62.0098 22.0879 60.1807 23.6421 60.1726C25.4151 60.1646 26.2195 61.3947 26.2742 63.0295C26.3289 64.6482 26.4226 66.5339 24.2357 66.8657C22.2597 67.1651 21.713 65.6194 21.3068 64.3244ZM26.1649 63.2642C25.0636 62.3335 24.431 61.7994 23.7905 61.2652C23.2672 62.1231 22.4159 62.9486 22.3378 63.8389C22.2831 64.4458 23.3219 65.1499 23.8764 65.8055C24.5169 65.0852 25.1651 64.3649 26.1649 63.2642Z" fill="#1A6650" fill-opacity="0.22"/>
<path fill-rule="evenodd" clip-rule="evenodd" d="M65.5522 11.0067C65.5913 9.47706 65.6304 7.94745 65.6694 6.21552C67.169 6.61208 68.567 6.98437 70.3009 7.43758C69.9729 8.82151 69.6683 10.1488 69.3559 11.468C69.0825 11.4194 68.8013 11.3628 68.528 11.3061C68.5514 10.6506 68.6529 9.97074 68.5592 9.33138C68.4889 8.87007 68.1375 8.45732 67.9188 8.02838C67.5361 8.38448 67.0206 8.67584 66.8019 9.12096C66.5051 9.71176 66.4426 10.4321 66.2786 11.0957C66.0365 11.0633 65.7944 11.039 65.5522 11.0067Z" fill="#1A6650" fill-opacity="0.22"/>
<path fill-rule="evenodd" clip-rule="evenodd" d="M36.9665 58.9991C37.8882 60.2617 38.8098 61.5242 39.7314 62.7867C39.8876 62.7544 40.0438 62.722 40.2 62.6896C40.1141 61.4757 40.0282 60.2617 39.9345 59.0477C40.0672 59.0315 40.2 59.0153 40.325 58.9991C40.5749 60.9415 40.817 62.8839 41.067 64.8343C40.8639 64.9557 40.6608 65.0852 40.4578 65.2066C39.419 63.8065 38.3724 62.4064 36.9197 60.464C37.0446 62.4226 37.1306 63.8308 37.2243 65.2471C36.9822 65.2552 36.7479 65.2714 36.5057 65.2794C36.3573 63.2562 36.2011 61.2329 36.0527 59.2096C36.3573 59.1448 36.6619 59.0801 36.9587 59.0072L36.9665 58.9991Z" fill="#1A6650" fill-opacity="0.22"/>
<path fill-rule="evenodd" clip-rule="evenodd" d="M76.5103 60.4397C74.8311 59.2258 73.394 59.0315 71.5039 61.3624C72.1053 58.7645 72.5192 56.9678 72.9332 55.1711C73.1831 55.1549 73.4331 55.1306 73.683 55.1144C74.6202 56.8949 75.5653 58.6673 76.5025 60.4397H76.5103Z" fill="#1A6650" fill-opacity="0.22"/>
<path fill-rule="evenodd" clip-rule="evenodd" d="M102.948 55.7214C103.815 55.8185 104.682 55.9075 105.549 55.9966C105.604 56.2151 105.651 56.4417 105.705 56.6602C104.745 56.8302 103.018 57.2996 102.948 57.1215C102.331 55.4462 101.745 53.6576 101.777 51.9095C101.777 51.4239 103.87 50.9707 104.994 50.5094C105.104 50.7927 105.213 51.0759 105.322 51.3592C104.416 51.7962 103.51 52.2332 102.604 52.6784C102.636 52.8564 102.667 53.0264 102.698 53.1963C103.471 53.3096 104.245 53.431 105.651 53.6334C104.401 54.2646 103.667 54.645 102.925 55.0254C102.925 55.252 102.94 55.4867 102.948 55.7133V55.7214Z" fill="#1A6650" fill-opacity="0.22"/>
<path fill-rule="evenodd" clip-rule="evenodd" d="M99.98 52.8241C99.1677 52.9374 98.3632 53.0426 97.301 53.1883C98.3632 54.8393 101.355 53.7791 100.706 56.4984C100.566 57.1135 99.6597 57.9066 99.0661 57.939C98.2929 57.9875 97.4885 57.3563 96.9261 56.6279C97.9415 56.5712 98.9568 56.5146 100.246 56.4498C98.5975 55.1711 97.4885 54.3213 96.3872 53.4715C96.8402 52.9455 97.1995 52.1766 97.754 51.9662C98.4569 51.7072 99.3161 51.9015 100.105 51.9015C100.058 52.2009 100.019 52.5085 99.9721 52.816L99.98 52.8241Z" fill="#1A6650" fill-opacity="0.22"/>
<path fill-rule="evenodd" clip-rule="evenodd" d="M42.3398 13.1433C43.2302 12.7386 43.9019 12.4392 44.5658 12.1398C44.7376 12.3016 44.9172 12.4635 45.0812 12.6253C44.6282 13.2242 44.2846 14.1549 43.7066 14.3492C42.0274 14.9076 41.1058 13.6127 40.8949 12.2288C40.7621 11.3871 41.4338 10.2783 42.0274 9.52566C42.1914 9.32333 43.363 9.97887 44.0737 10.2379C43.9878 10.5049 43.9019 10.772 43.816 11.0391C43.2614 10.9662 42.7069 10.9015 42.043 10.8125C42.1289 11.5085 42.2227 12.2207 42.3398 13.1433Z" fill="#1A6650" fill-opacity="0.22"/>
<path fill-rule="evenodd" clip-rule="evenodd" d="M28.055 21.5035C27.4926 20.2572 26.9069 19.3588 26.7116 18.3796C26.5945 17.8049 26.985 16.6638 27.3521 16.5586C28.1175 16.332 29.0313 16.591 29.867 16.7528C30.031 16.7852 30.2809 17.4084 30.1872 17.5945C29.578 18.8247 28.8829 20.0144 28.055 21.5035Z" fill="#1A6650" fill-opacity="0.22"/>
<path fill-rule="evenodd" clip-rule="evenodd" d="M64.4352 10.2055C62.5607 9.83321 61.436 9.6066 59.7256 9.26668C60.8425 8.10936 61.9125 6.9925 62.9903 5.86755C63.4589 7.26767 63.9275 8.66779 64.443 10.2055H64.4352Z" fill="#1A6650" fill-opacity="0.22"/>
<path fill-rule="evenodd" clip-rule="evenodd" d="M46.1437 64.195C44.9097 64.3649 43.9412 64.4944 42.9727 64.6239C41.6606 58.8049 42.0667 57.8256 45.6829 58.5945C44.6754 59.1772 43.7928 59.679 42.9102 60.1888C42.9961 60.4155 43.082 60.634 43.1758 60.8525C43.8162 60.9982 44.4489 61.1438 44.9956 61.2652C44.4176 61.7589 43.8475 62.2526 43.2773 62.7463C44.1052 63.159 44.9331 63.5718 46.1515 64.1869L46.1437 64.195Z" fill="#1A6650" fill-opacity="0.22"/>
<path fill-rule="evenodd" clip-rule="evenodd" d="M57.8199 57.4372C57.078 57.9714 56.3282 58.4974 55.5784 59.0316C56.211 59.4362 56.8436 59.8409 57.2888 60.1322C56.8358 60.456 56.1876 60.9254 55.5471 61.3867C56.2969 61.8965 57.0545 62.4064 58.0777 63.1024C57.1951 63.1105 55.6487 63.329 55.5706 63.0862C55.0863 61.4109 54.7114 59.6385 54.7739 57.9147C54.7895 57.5262 56.6562 57.2025 57.6715 56.8545C57.7262 57.0487 57.7731 57.243 57.8199 57.4372Z" fill="#1A6650" fill-opacity="0.22"/>
<path fill-rule="evenodd" clip-rule="evenodd" d="M66.8177 61.9451C66.5677 60.0108 66.3256 58.0685 66.0132 55.6648C67.4425 55.9238 68.6531 55.9157 69.5903 56.4417C69.9418 56.6441 69.6216 58.0927 69.0592 58.9587C69.0592 58.4327 69.2545 57.7852 69.028 57.4129C68.8093 57.0568 68.1454 56.8383 67.6924 56.8626C67.4425 56.8788 67.0129 57.5343 67.0363 57.8823C67.1144 59.2258 67.3409 60.5693 67.5128 61.9046C67.2785 61.9208 67.0442 61.9289 66.8177 61.937V61.9451Z" fill="#1A6650" fill-opacity="0.22"/>
<path fill-rule="evenodd" clip-rule="evenodd" d="M47.8148 62.5925C48.0334 62.7463 48.2678 63.0538 48.4708 63.0296C49.1425 62.9567 49.8064 62.7625 50.4703 62.6249C50.0016 62.1474 49.5486 61.6699 49.0722 61.2005C48.4318 60.5773 47.7835 59.9623 47.1353 59.3391C47.8694 58.7078 48.5958 58.0766 49.33 57.4372C49.494 57.68 49.6502 57.9066 49.8142 58.1413C49.2284 58.554 48.6348 58.9749 47.9866 59.4281C48.5802 61.1762 53.0945 60.3507 50.6265 63.6608C49.8767 64.6644 48.3459 64.4863 47.8069 62.5844L47.8148 62.5925Z" fill="#1A6650" fill-opacity="0.22"/>
<path fill-rule="evenodd" clip-rule="evenodd" d="M90.2799 12.8034C90.9437 13.1352 91.4202 13.3699 92.1622 13.7341C91.5217 14.0821 91.0609 14.333 90.5767 14.6001C90.9516 14.94 91.303 15.2556 91.6623 15.5712C91.6076 15.7088 91.553 15.8464 91.5061 15.9921C90.6938 15.8788 89.8815 15.7655 88.8037 15.6117C88.9833 14.0902 89.1474 12.7629 89.3426 11.1443C90.4595 11.3628 91.3265 11.5247 92.2012 11.6946C92.2168 11.8403 92.2403 11.9941 92.2559 12.1397C91.6779 12.334 91.1 12.5363 90.2877 12.8034H90.2799Z" fill="#1A6650" fill-opacity="0.22"/>
<path fill-rule="evenodd" clip-rule="evenodd" d="M71.8706 20.3786C71.1677 21.8758 71.1521 22.7256 72.9563 22.9198C73.6748 23.0008 74.3543 23.5916 74.9245 24.2876C73.2296 23.5916 71.6676 22.6123 70.168 24.676C70.6288 22.8551 71.0974 21.0341 71.73 18.5333C72.636 19.8444 73.214 20.6861 73.792 21.5197C73.6982 21.633 73.6123 21.7463 73.5186 21.8515C73.0187 21.3983 72.5111 20.9532 71.8784 20.3786H71.8706Z" fill="#1A6650" fill-opacity="0.22"/>
<path fill-rule="evenodd" clip-rule="evenodd" d="M36.3182 23.1626C32.9363 24.7003 37.1304 28.059 34.2875 29.9447C34.1937 27.8324 34.1156 26.1247 34.0297 24.2552C33.3971 24.2714 32.7566 24.2875 32.1162 24.3037C32.0928 24.1176 32.0693 23.9314 32.0459 23.7453C33.4752 23.5511 34.8967 23.3568 36.3182 23.1626Z" fill="#1A6650" fill-opacity="0.22"/>
<path fill-rule="evenodd" clip-rule="evenodd" d="M40.3403 24.5223C41.0276 25.7605 41.7071 26.9664 42.535 28.4474C41.2776 28.0832 40.3872 27.5653 39.5671 27.6705C38.7314 27.7757 37.9738 28.496 36.771 29.1677C37.2552 27.6867 37.6458 26.4565 38.0597 25.1697C38.6142 25.6634 39.0594 26.06 39.5046 26.4565C39.7702 25.8414 40.0357 25.2183 40.3325 24.5142L40.3403 24.5223Z" fill="#1A6650" fill-opacity="0.22"/>
<path fill-rule="evenodd" clip-rule="evenodd" d="M33.2097 65.498C32.288 63.6285 31.3274 61.6942 30.3745 59.7599C30.4995 59.6628 30.6244 59.5657 30.7494 59.4686C31.4133 60.3022 32.085 61.1277 32.8894 62.1231C33.4596 61.1762 33.9829 60.3022 34.5062 59.4281C34.5999 59.4767 34.7014 59.5333 34.7952 59.5819C34.2562 61.589 33.7173 63.6042 33.2097 65.498Z" fill="#1A6650" fill-opacity="0.22"/>
<path fill-rule="evenodd" clip-rule="evenodd" d="M53.3446 71.2603C53.0166 70.8799 52.6885 70.4915 52.1184 69.8359C52.2043 71.2603 52.2824 72.3934 52.3449 73.5264C52.1965 73.5426 52.0403 73.5588 51.8919 73.5669C51.6498 71.6893 51.4076 69.8116 51.1343 67.6346C53.4696 67.9583 53.0947 69.8116 53.3368 71.2603H53.3446Z" fill="#1A6650" fill-opacity="0.22"/>
<path fill-rule="evenodd" clip-rule="evenodd" d="M61.5455 71.7135C61.4284 71.6083 61.2019 71.495 61.2097 71.3979C61.3112 69.9654 61.4049 68.5329 61.6314 67.1166C61.647 67.0195 63.2091 66.979 63.2404 67.1166C63.584 68.6219 63.873 70.1677 63.9277 71.7054C63.9433 72.1101 63.1388 72.798 62.6468 72.8709C62.3265 72.9194 61.8814 72.102 61.4908 71.6731C62.1625 71.584 63.4044 71.5274 63.4122 71.3979C63.4747 70.3215 63.3653 69.2289 63.1544 68.1687C63.1154 67.9664 62.3656 67.9178 61.9438 67.7964C61.7642 68.6219 61.5455 69.4313 61.4284 70.2649C61.3659 70.7343 61.4908 71.2279 61.5299 71.7135H61.5455Z" fill="#1A6650" fill-opacity="0.22"/>
<path fill-rule="evenodd" clip-rule="evenodd" d="M60.7177 26.1328C60.5771 24.3199 60.4365 22.499 60.2803 20.4838C61.3659 20.3867 62.3969 20.2976 64.0605 20.1439C62.639 21.1393 61.8501 21.6977 61.0535 22.2481C61.4596 22.6042 61.8658 22.9522 62.022 23.0898C61.7174 24.0205 61.3893 25.0402 61.0613 26.06C60.9442 26.0842 60.827 26.1085 60.7098 26.1328H60.7177Z" fill="#1A6650" fill-opacity="0.22"/>
<path fill-rule="evenodd" clip-rule="evenodd" d="M28.6095 64.8748C29.6327 65.0367 30.3591 65.1419 31.0854 65.2552C31.0932 65.3928 31.1088 65.5384 31.1167 65.676C30.1482 65.8136 29.1797 65.9431 28.18 66.0807C27.9379 64.1626 27.6879 62.2202 27.438 60.2779C27.6254 60.2455 27.8207 60.205 28.0081 60.1727C28.2034 61.7346 28.4065 63.2966 28.6095 64.8667V64.8748Z" fill="#1A6650" fill-opacity="0.22"/>
<path fill-rule="evenodd" clip-rule="evenodd" d="M35.5291 12.6415C36.5054 13.7341 37.4817 14.8266 38.6766 16.1701C38.4501 16.3077 37.3801 17.0603 37.3098 16.9713C36.3726 15.7978 35.5838 14.5029 34.748 13.2323C35.0058 13.03 35.2713 12.8357 35.5291 12.6415Z" fill="#1A6650" fill-opacity="0.22"/>
<path fill-rule="evenodd" clip-rule="evenodd" d="M61.8267 56.8383C62.6702 56.725 63.5996 56.5955 64.6852 56.4498C63.873 57.162 63.2091 57.7447 62.553 58.3193C63.1232 58.6835 63.6933 59.0558 64.0604 59.2986C63.6387 59.938 63.0373 60.8363 62.4515 61.7266C62.2797 60.3669 62.0688 58.7159 61.8267 56.8383Z" fill="#1A6650" fill-opacity="0.22"/>
<path fill-rule="evenodd" clip-rule="evenodd" d="M79.5327 13.0299C78.8688 13.0138 78.1971 12.9976 77.5332 12.9814C77.6816 12.3744 77.7363 11.7269 77.9862 11.1685C78.3064 10.4644 78.7751 9.84933 79.6732 9.19379C79.6108 10.4887 79.5561 11.7917 79.4936 13.0866L79.5248 13.0299H79.5327Z" fill="#1A6650" fill-opacity="0.22"/>
<path fill-rule="evenodd" clip-rule="evenodd" d="M87.7336 58.4245C87.3431 59.4038 86.9604 60.375 86.4762 61.5809C85.3124 60.0674 84.3283 58.7887 83.3442 57.51C84.7813 58.2789 85.7967 59.8975 87.7336 58.4245Z" fill="#1A6650" fill-opacity="0.22"/>
<path fill-rule="evenodd" clip-rule="evenodd" d="M87.265 15.2394C86.812 15.2071 86.1482 15.1666 85.1719 15.1019C85.3593 13.4589 85.5233 11.9617 85.6874 10.4645C85.8904 10.4645 86.0935 10.4483 86.2966 10.4402C86.609 11.9941 86.9214 13.548 87.265 15.2394Z" fill="#1A6650" fill-opacity="0.22"/>
<path fill-rule="evenodd" clip-rule="evenodd" d="M80.009 56.8949C79.0484 56.6683 78.65 56.5712 78.0565 56.4255C78.2361 57.8256 78.4001 59.1206 78.5641 60.4074C78.4235 60.4236 78.283 60.4397 78.1424 60.4559C77.9003 58.5378 77.6503 56.6198 77.4082 54.7017C77.58 54.5965 77.7597 54.4913 77.9315 54.386C78.5095 55.0821 79.0796 55.77 80.009 56.8949Z" fill="#1A6650" fill-opacity="0.22"/>
<path fill-rule="evenodd" clip-rule="evenodd" d="M95.1766 52.4599C95.4109 54.3213 95.653 56.1828 95.8873 58.0523C95.7077 58.0847 95.5281 58.117 95.3406 58.1494C95.1063 56.2718 94.8642 54.3942 94.6221 52.5246C94.8095 52.5004 94.9892 52.4842 95.1688 52.4599H95.1766Z" fill="#1A6650" fill-opacity="0.22"/>
<path fill-rule="evenodd" clip-rule="evenodd" d="M47.1119 27.8081C46.6355 26.8127 46.1591 25.8172 45.7295 24.9108C45.9716 24.2309 46.2606 23.4054 46.7448 22.0458C47.026 24.2471 47.2447 25.9871 47.4712 27.7191C47.354 27.7515 47.2369 27.7757 47.1119 27.8V27.8081Z" fill="#1A6650" fill-opacity="0.22"/>
<path fill-rule="evenodd" clip-rule="evenodd" d="M40.3793 15.7412C39.6686 14.4139 38.9578 13.0785 38.2471 11.7432C38.5517 11.557 38.8563 11.379 39.1609 11.2009C39.856 12.5363 40.5433 13.8636 41.2306 15.199C40.9416 15.377 40.6605 15.5631 40.3715 15.7412H40.3793Z" fill="#1A6650" fill-opacity="0.22"/>
<path fill-rule="evenodd" clip-rule="evenodd" d="M57.1483 73.0085C55.9143 72.1668 57.781 69.5689 55.0239 69.7388C55.3051 68.8729 55.5628 68.0959 55.8206 67.319C56.0237 67.3352 56.2267 67.3594 56.4298 67.3756C56.6641 69.2128 56.8984 71.058 57.1483 73.0085Z" fill="#1A6650" fill-opacity="0.22"/>
<path fill-rule="evenodd" clip-rule="evenodd" d="M79.5015 13.0866C80.7667 12.771 82.0398 12.4473 83.4847 12.0831C83.7112 12.9409 83.8831 13.5884 84.1252 14.5029C82.3991 13.9445 80.9698 13.4832 79.5405 13.0219L79.5093 13.0785L79.5015 13.0866Z" fill="#1A6650" fill-opacity="0.22"/>
<path d="M19.5584 49.5239L20.5856 49.2414C20.7811 49.8179 21.0388 50.2183 21.3588 50.4426C21.6821 50.6625 22.0508 50.7441 22.4649 50.6875C22.9564 50.6203 23.3488 50.3931 23.6421 50.0061C23.9392 49.6185 24.0557 49.1728 23.9916 48.6691C23.9303 48.1886 23.7232 47.8148 23.3703 47.5477C23.0168 47.2767 22.5982 47.1743 22.1144 47.2405C21.917 47.2675 21.6762 47.3398 21.3919 47.4576L21.391 46.5233C21.4617 46.5215 21.5183 46.5177 21.5609 46.5119C22.006 46.451 22.3917 46.28 22.7181 45.9988C23.0446 45.7176 23.177 45.3348 23.1153 44.8504C23.0664 44.4668 22.8963 44.1668 22.6049 43.9504C22.3135 43.734 21.9627 43.6539 21.5524 43.71C21.146 43.7656 20.8237 43.9398 20.5854 44.2326C20.347 44.5254 20.2217 44.9328 20.2095 45.4549L19.1408 45.4118C19.1792 44.693 19.4004 44.1108 19.8043 43.6652C20.2077 43.2158 20.7462 42.945 21.4196 42.8529C21.884 42.7894 22.3245 42.8316 22.7411 42.9797C23.1571 43.1238 23.4897 43.3543 23.7388 43.6711C23.9917 43.9874 24.1428 44.3393 24.1922 44.7268C24.2391 45.0949 24.1831 45.4436 24.0242 45.7728C23.8654 46.1021 23.6038 46.3823 23.2394 46.6135C23.7574 46.6609 24.1791 46.8496 24.5047 47.1796C24.8297 47.5057 25.0273 47.9439 25.0974 48.4942C25.1922 49.2382 25.0017 49.9068 24.5261 50.5002C24.0499 51.0897 23.3977 51.441 22.5695 51.5543C21.8225 51.6565 21.173 51.5187 20.6208 51.1408C20.0725 50.7624 19.7184 50.2235 19.5584 49.5239ZM25.9218 46.6664C25.7935 45.6589 25.7929 44.8351 25.92 44.1948C26.0505 43.5501 26.2977 43.0333 26.6616 42.6445C27.0294 42.2551 27.5229 42.0181 28.1422 41.9334C28.5988 41.8709 29.0113 41.9091 29.3794 42.048C29.747 42.183 30.0653 42.4095 30.3342 42.7275C30.6026 43.0417 30.8325 43.44 31.0239 43.9224C31.2148 44.4009 31.3641 45.0625 31.4717 45.9073C31.5991 46.907 31.5994 47.729 31.4728 48.3731C31.3457 49.0134 31.0985 49.5302 30.7312 49.9234C30.3672 50.3123 29.8737 50.5493 29.2506 50.6345C28.4301 50.7468 27.7482 50.5404 27.2049 50.0155C26.5534 49.3831 26.1257 48.2668 25.9218 46.6664ZM26.9958 46.5195C27.174 47.9184 27.4553 48.8281 27.8396 49.2486C28.2273 49.6647 28.6611 49.8399 29.141 49.7743C29.6209 49.7086 29.9938 49.4211 30.2597 48.9116C30.5294 48.4016 30.5754 47.4492 30.3977 46.0542C30.219 44.6515 29.9358 43.742 29.5481 43.3259C29.1643 42.9093 28.7285 42.7343 28.2409 42.801C27.761 42.8666 27.4037 43.1225 27.1692 43.5685C26.8754 44.137 26.8176 45.1207 26.9958 46.5195ZM33.499 49.9055L32.4135 41.3846L35.3452 40.9836C36.007 40.893 36.5172 40.8646 36.8759 40.8984C37.3779 40.944 37.8199 41.0905 38.2018 41.3379C38.6991 41.6563 39.0959 42.0968 39.392 42.6595C39.6915 43.2177 39.8896 43.8766 39.9864 44.6361C40.0688 45.2832 40.0664 45.867 39.9792 46.3876C39.8919 46.9081 39.7512 47.3492 39.5571 47.7108C39.3625 48.0686 39.136 48.3618 38.8777 48.5903C38.6227 48.8144 38.3021 49.0021 37.9158 49.1535C37.5334 49.3044 37.0848 49.4151 36.57 49.4855L33.499 49.9055ZM34.4972 48.7459L36.3142 48.4974C36.8754 48.4206 37.308 48.3082 37.612 48.1602C37.9199 48.0116 38.1566 47.8295 38.3221 47.6136C38.555 47.3097 38.7164 46.923 38.8062 46.4534C38.8994 45.9794 38.905 45.4207 38.8231 44.7775C38.7096 43.8863 38.4754 43.2225 38.1205 42.7861C37.769 42.3453 37.3739 42.0721 36.9352 41.9665C36.6185 41.8916 36.1254 41.8999 35.4559 41.9915L33.6678 42.2361L34.4972 48.7459ZM42.1141 48.7271L41.0286 40.2061L47.1822 39.3644L47.3103 40.3699L42.2829 41.0576L42.6154 43.6674L47.3235 43.0234L47.4509 44.0231L42.7428 44.6671L43.1122 47.5675L48.337 46.8528L48.4651 47.8584L42.1141 48.7271ZM55.7127 43.8273L56.8752 43.9581C56.7571 44.9165 56.4215 45.6819 55.8683 46.2543C55.3185 46.8223 54.6005 47.167 53.7142 47.2882C52.797 47.4137 52.0263 47.3298 51.4023 47.0367C50.7816 46.7392 50.2752 46.2565 49.883 45.5887C49.4946 44.9204 49.2486 44.1793 49.145 43.3656C49.0319 42.4782 49.1018 41.6822 49.3546 40.9774C49.6107 40.2682 50.0286 39.7004 50.6083 39.2742C51.1913 38.8436 51.8583 38.5769 52.6091 38.4742C53.4605 38.3577 54.2042 38.4768 54.84 38.8314C55.4758 39.186 55.958 39.741 56.2866 40.4963L55.2111 40.9096C54.9347 40.3166 54.5908 39.9043 54.1793 39.6728C53.7679 39.4413 53.2777 39.3644 52.7088 39.4422C52.0547 39.5317 51.5271 39.7636 51.1259 40.1378C50.7285 40.5115 50.4746 40.9759 50.3642 41.5311C50.2534 42.0825 50.2337 42.6391 50.3053 43.201C50.3976 43.9256 50.5828 44.5448 50.8609 45.0587C51.1424 45.5682 51.5227 45.9262 52.0018 46.1327C52.4809 46.3392 52.9798 46.407 53.4984 46.336C54.1293 46.2497 54.6402 45.9946 55.0311 45.5705C55.422 45.1464 55.6492 44.5654 55.7127 43.8273ZM63.5528 44.7715L63.6809 45.777L58.0555 46.5465C58.0157 46.2957 58.0255 46.048 58.0849 45.8033C58.1792 45.4001 58.3594 44.991 58.6255 44.5762C58.8955 44.1608 59.2974 43.6682 59.8312 43.0984C60.6594 42.2124 61.2079 41.5263 61.4767 41.0401C61.7451 40.55 61.8541 40.1073 61.8037 39.7121C61.7509 39.2975 61.5575 38.9691 61.2234 38.727C60.8927 38.4805 60.4894 38.3898 60.0134 38.4549C59.5102 38.5237 59.127 38.7299 58.8636 39.0734C58.6002 39.417 58.5007 39.8564 58.5649 40.3917L57.4769 40.4281C57.4482 39.616 57.6472 38.9678 58.0738 38.4837C58.4999 37.9956 59.1174 37.6963 59.9263 37.5857C60.7429 37.474 61.4181 37.6122 61.9519 38.0005C62.4857 38.3887 62.7953 38.9181 62.8807 39.5884C62.9241 39.9294 62.8971 40.2741 62.7998 40.6226C62.7024 40.971 62.5144 41.3496 62.2357 41.7583C61.9608 42.1664 61.4885 42.7396 60.8186 43.4778C60.2588 44.0906 59.902 44.5041 59.7481 44.7183C59.5938 44.9286 59.4707 45.1367 59.3787 45.3424L63.5528 44.7715ZM21.073 61.4595C20.9446 60.452 20.944 59.6281 21.0712 58.9878C21.2017 58.3431 21.4489 57.8263 21.8128 57.4375C22.1806 57.0481 22.6741 56.8111 23.2933 56.7264C23.75 56.6639 24.1624 56.7021 24.5306 56.841C24.8982 56.976 25.2165 57.2025 25.4854 57.5206C25.7538 57.8347 25.9837 58.233 26.1751 58.7154C26.366 59.1939 26.5153 59.8556 26.6229 60.7003C26.7502 61.7 26.7506 62.522 26.624 63.1662C26.4968 63.8065 26.2496 64.3232 25.8823 64.7165C25.5184 65.1053 25.0249 65.3423 24.4018 65.4276C23.5813 65.5398 22.8994 65.3334 22.3561 64.8085C21.7046 64.1762 21.2769 63.0598 21.073 61.4595ZM22.147 61.3125C22.3252 62.7114 22.6064 63.6211 22.9908 64.0416C23.3785 64.4577 23.8123 64.633 24.2922 64.5673C24.7721 64.5017 25.145 64.2141 25.4109 63.7047C25.6806 63.1947 25.7266 62.2422 25.5489 60.8472C25.3702 59.4445 25.087 58.5351 24.6993 58.1189C24.3154 57.7023 23.8797 57.5273 23.392 57.594C22.9121 57.6597 22.5549 57.9155 22.3203 58.3616C22.0266 58.93 21.9688 59.9137 22.147 61.3125ZM27.691 60.5542C27.5627 59.5467 27.5621 58.7228 27.6892 58.0825C27.8197 57.4378 28.0669 56.921 28.4308 56.5322C28.7986 56.1429 29.2921 55.9058 29.9114 55.8211C30.3681 55.7586 30.7805 55.7969 31.1486 55.9357C31.5163 56.0707 31.8345 56.2973 32.1034 56.6153C32.3719 56.9295 32.6018 57.3277 32.7931 57.8101C32.9841 58.2887 33.1333 58.9503 33.2409 59.795C33.3683 60.7948 33.3687 61.6167 33.242 62.2609C33.1149 62.9012 32.8677 63.4179 32.5004 63.8112C32.1365 64.2 31.643 64.437 31.0199 64.5223C30.1994 64.6345 29.5175 64.4282 28.9741 63.9032C28.3226 63.2709 27.8949 62.1545 27.691 60.5542ZM28.765 60.4073C28.9432 61.8061 29.2245 62.7158 29.6088 63.1363C29.9966 63.5525 30.4304 63.7277 30.9103 63.662C31.3902 63.5964 31.7631 63.3088 32.0289 62.7994C32.2986 62.2894 32.3447 61.3369 32.1669 59.9419C31.9882 58.5392 31.705 57.6298 31.3173 57.2137C30.9335 56.797 30.4977 56.622 30.0101 56.6888C29.5302 56.7544 29.173 57.0102 28.9384 57.4563C28.6446 58.0248 28.5868 59.0084 28.765 60.4073ZM40.2082 62.0945L40.3363 63.1001L34.7109 63.8695C34.6711 63.6187 34.6809 63.371 34.7403 63.1263C34.8346 62.7231 35.0148 62.3141 35.2809 61.8992C35.5509 61.4838 35.9528 60.9912 36.4866 60.4214C37.3148 59.5354 37.8633 58.8493 38.1322 58.3631C38.4005 57.873 38.5095 57.4303 38.4591 57.0351C38.4063 56.6205 38.2129 56.2921 37.8788 56.05C37.5482 55.8035 37.1448 55.7128 36.6688 55.7779C36.1657 55.8467 35.7824 56.0529 35.519 56.3965C35.2557 56.74 35.1561 57.1794 35.2204 57.7147L34.1323 57.7511C34.1037 56.939 34.3026 56.2908 34.7292 55.8067C35.1553 55.3187 35.7728 55.0193 36.5817 54.9087C37.3983 54.797 38.0735 54.9353 38.6073 55.3235C39.1411 55.7118 39.4507 56.2411 39.5361 56.9114C39.5795 57.2524 39.5526 57.5971 39.4552 57.9456C39.3578 58.294 39.1698 58.6726 38.8911 59.0813C38.6163 59.4895 38.1439 60.0627 37.4741 60.8009C36.9142 61.4136 36.5574 61.8271 36.4035 62.0413C36.2492 62.2517 36.1261 62.4597 36.0342 62.6655L40.2082 62.0945Z" fill="#1A6650" fill-opacity="0.22"/>
<path d="M21.2598 40.3768L21.0567 40.4011C20.6584 40.4011 20.4397 40.4011 20.4006 40.4011L20.1976 40.4254C20.1507 40.4254 20.1273 40.4658 20.1273 40.5225L20.0413 40.4982H20.0023C19.807 40.5306 19.5337 40.6358 19.1822 40.8219C18.7995 40.8705 18.6121 41.2104 18.6199 41.8255C18.6902 42.3839 18.9635 42.6267 19.4478 42.562L19.5962 42.4567C19.7055 42.133 19.8773 41.8983 20.1194 41.7526L20.6115 41.4289L21.0333 41.5827C21.1426 41.5665 21.2832 41.4694 21.4472 41.2751L21.6112 41.2509C21.6971 41.2832 21.7362 41.3156 21.744 41.3561C22.0877 41.4208 22.2751 41.4937 22.3063 41.5746L22.3298 41.7445C22.2048 42.2059 22.0486 42.5053 21.869 42.651C21.5956 42.9747 21.4316 43.1366 21.3613 43.1528C21.1973 43.5331 20.9708 43.8892 20.6818 44.221C20.6818 44.2453 20.6974 44.2615 20.7208 44.2534V44.2939L20.6427 44.2696C20.4084 44.5367 20.3069 44.7876 20.3303 45.0304V45.1113L20.424 45.1032C20.424 45.1356 20.4162 45.1518 20.385 45.1518C20.385 45.1922 20.4475 45.2246 20.5646 45.2489L20.6427 45.2003L20.6193 45.2813C20.6584 45.2813 20.7677 45.2813 20.9473 45.3217C21.3457 45.2084 21.5331 45.0951 21.5253 44.998C21.5331 44.9009 21.8221 44.7471 22.4001 44.5367C22.5875 44.5367 22.689 44.5691 22.7047 44.6257C23.0561 44.5771 23.3764 44.6824 23.681 44.9494C24.0949 45.435 24.3136 45.7588 24.337 45.9206L24.4151 46.5033C24.4308 46.6085 24.3605 46.9565 24.2277 47.5473L23.4545 48.5428C23.3685 48.8099 23.2592 49.0041 23.1264 49.1336C23.1264 49.166 23.142 49.1822 23.1655 49.1741V49.2145C23.1655 49.2145 23.1342 49.2145 23.1264 49.1822C22.814 49.5059 22.525 49.6839 22.2517 49.7244C21.9861 49.9915 21.744 50.1372 21.5331 50.1614C21.3222 50.4366 21.1895 50.5823 21.1348 50.5904C21.1114 50.5904 21.002 50.5904 20.8068 50.5904C20.7599 50.5904 20.6974 50.6308 20.6193 50.7037C20.3772 50.7927 20.1819 50.9869 20.0413 51.2864C20.0804 51.5939 20.2522 51.7558 20.5568 51.772C20.6193 51.7639 20.8224 51.7234 21.1582 51.6425C21.3144 51.6182 21.8143 51.3107 22.6734 50.7199C22.8296 50.6956 23.0718 50.5094 23.4232 50.1533L24.0793 49.5544C24.5167 48.9636 24.751 48.6642 24.7822 48.6561C24.9462 48.2676 25.0478 48.0653 25.079 48.0653C25.1415 47.9034 25.2665 47.434 25.4695 46.6571L25.3602 46.0825C25.3602 46.0825 25.3836 45.9287 25.4383 45.7345C25.4149 45.7345 25.3055 45.4836 25.0946 44.9737C25.0556 44.6743 24.6104 44.2372 23.7434 43.6383C23.2983 43.5898 23.0639 43.4684 23.0405 43.2661C23.0405 43.1285 23.0639 43.0556 23.0952 43.0475C23.0405 42.5943 23.1889 42.2544 23.5326 42.0116C23.6263 41.7364 23.8762 41.437 24.2745 41.1052L24.2199 41.0242C24.2199 41.0242 24.2667 41.0242 24.2667 41.0566C24.3292 41.0485 24.3761 40.8867 24.4073 40.5791C24.337 40.3363 24.2824 40.2149 24.2433 40.223C24.2043 39.9398 23.8137 39.8507 23.0639 39.9559L22.0798 40.223L21.6581 40.1502C21.4863 40.2878 21.3613 40.3606 21.2832 40.3687L21.2598 40.3768Z" stroke="#1A6650" stroke-opacity="0.22" stroke-width="0.75" stroke-miterlimit="10"/>
<path d="M28.9375 40.4982C29.1093 40.2231 29.2186 40.0774 29.2499 40.0693C29.3358 40.0612 29.4061 40.0693 29.4529 40.0855L29.6951 40.0046H29.7341C29.7966 39.9884 29.9372 40.0126 30.1559 40.0693C30.2027 40.0369 30.2418 40.0207 30.2652 40.0126C30.3277 40.0046 30.4527 40.0288 30.6401 40.0855C30.7729 40.0369 30.851 40.0207 30.8744 40.0126C30.9994 39.9965 31.1322 40.1017 31.2806 40.3364C31.6945 40.3526 31.9288 40.5873 31.9835 41.0405C32.1944 41.5423 32.3506 41.7931 32.4443 41.777C32.5302 42.2706 32.6317 42.6267 32.7411 42.8453C32.7411 42.8938 32.7411 43.0638 32.7333 43.3551C32.8504 43.6627 32.9207 43.8569 32.9285 43.9216C32.9285 44.8281 32.8661 45.2813 32.7333 45.3056C32.7801 45.6941 32.7411 46.0259 32.6083 46.2929C32.6083 46.5519 32.4833 46.7947 32.2569 47.0213C32.0538 47.337 31.796 47.5717 31.4836 47.7173C31.4211 47.7821 31.0384 47.9035 30.3511 48.0815C30.1793 48.1058 30.0465 48.0573 29.9606 47.9278C29.4686 47.7335 29.1327 47.5069 28.9765 47.256C28.75 46.8918 28.6172 46.7138 28.586 46.7219C28.4688 46.1473 28.3517 45.864 28.2345 45.8802C28.1018 45.168 27.9768 44.82 27.8596 44.8362L27.9065 44.2373L27.7112 43.6708L27.8128 42.8938C28.0315 42.0764 28.1252 41.5099 28.0861 41.2104C28.172 41.2023 28.422 40.9838 28.8203 40.5549C28.8203 40.5306 28.8047 40.5225 28.7734 40.5225V40.4821C28.7734 40.4821 28.8125 40.4821 28.8203 40.5144L28.9375 40.4982ZM29.9762 39.0496C29.4686 39.1224 29.0234 39.26 28.6407 39.4785C28.6407 39.519 28.3517 39.8022 27.7737 40.3202L27.8206 40.393C27.7425 40.4011 27.7112 40.4821 27.7269 40.6196C27.3676 41.1942 27.1958 41.5665 27.2192 41.7446C27.1177 41.866 27.0552 42.4406 27.0317 43.4684C27.0395 43.5575 27.0864 43.7193 27.1723 43.954C27.1801 44.0269 27.1723 44.2535 27.1333 44.6338L27.1958 45.1275C27.1723 45.3299 27.1645 45.4513 27.1645 45.4755C27.1879 45.6131 27.2192 45.6779 27.266 45.6698C27.3442 46.2525 27.6097 46.8514 28.0627 47.4584C28.0861 47.6445 28.3126 47.8873 28.7344 48.1787C29.2577 48.4781 29.5232 48.6642 29.531 48.7371C29.8591 48.8504 30.0778 48.9799 30.1949 49.1094C30.3433 49.0932 30.4917 49.0527 30.6323 49.0123C30.89 49.0042 31.1478 48.9799 31.3977 48.9475L31.5149 48.9313C31.632 48.9151 31.7414 48.8747 31.8273 48.8018C31.8273 48.7775 31.8039 48.7695 31.7804 48.7695V48.7209C31.7804 48.7209 31.8195 48.729 31.8273 48.7614L32.0147 48.6076L31.9601 48.5267H32.0069C31.9913 48.3891 32.2569 48.211 32.7958 47.9844C32.9598 47.9035 33.0847 47.7092 33.1707 47.3855H33.1238C33.1941 47.2075 33.2488 47.1184 33.2878 47.1104C33.3737 46.5924 33.5456 46.1311 33.8111 45.7264C33.7721 45.2085 33.7799 44.8524 33.8423 44.6662C33.8111 44.4234 33.7564 44.1159 33.6783 43.7517C33.7174 43.6384 33.733 43.5332 33.7252 43.4522C33.6315 42.7077 33.5534 42.3354 33.4987 42.3435C33.2488 41.4451 33.0691 41 32.9598 41.0162C32.9598 40.9919 32.9676 40.9757 32.9988 40.9676C32.952 40.8058 32.8973 40.7248 32.8426 40.7329C32.8426 40.7087 32.8504 40.6925 32.8817 40.6844C32.7489 40.5549 32.6083 40.3768 32.4443 40.1502C32.4131 40.1502 32.4052 40.1664 32.4052 40.1907H32.3662C32.3662 40.1907 32.374 40.1583 32.3974 40.1502C32.3428 40.045 32.2959 39.9884 32.2569 39.9965C31.8429 39.438 31.468 39.1791 31.14 39.2195C30.9369 39.1062 30.5542 39.0091 30.0075 38.9443C29.9762 38.9443 29.9684 38.9686 29.9684 38.9929L29.9762 39.0496ZM37.0055 37.35C37.0914 37.6171 37.232 37.7385 37.4195 37.7142H37.4663C37.5366 37.6494 37.5757 37.609 37.5679 37.5685L37.5523 37.439C37.4039 37.2367 37.2555 37.1477 37.1071 37.1639C37.068 37.1639 37.029 37.2286 37.0055 37.35Z" stroke="#1A6650" stroke-opacity="0.22" stroke-width="0.75" stroke-miterlimit="10"/>
<path d="M42.1912 38.2969H42.2693L42.5505 38.2888C42.5505 38.2645 42.5583 38.2483 42.5817 38.2483L42.5583 38.3373C43.7533 38.5073 44.3625 38.7015 44.3937 38.912C44.6593 38.8796 44.8155 39.0253 44.8545 39.3733L44.8702 39.4947L44.8389 39.5918C45.0654 39.8265 45.2138 40.0855 45.2685 40.3606C45.2685 40.393 45.2685 40.4335 45.2373 40.4982C45.3466 41.0971 45.4403 41.5018 45.5184 41.7203C45.5262 41.8093 45.5028 41.9307 45.4325 42.0845C45.4481 42.2221 45.4872 42.3596 45.534 42.5053L45.5028 42.9343C45.2841 43.784 45.1826 44.2534 45.1904 44.3344C45.0029 44.6176 44.917 44.7957 44.9326 44.8928C44.5734 45.2813 44.4015 45.4917 44.4094 45.5322C44.0969 45.5726 43.7845 45.7345 43.4877 46.0097C43.1519 46.0259 42.9488 46.0339 42.8863 46.042C42.5349 46.0906 42.3396 45.9611 42.3006 45.6455L42.2537 45.2894C42.2928 44.909 42.3006 44.6662 42.2849 44.5529C42.1209 44.1482 42.035 43.9216 42.035 43.8893L41.996 43.5898V43.2823C41.996 43.2823 41.9101 43.1771 41.8319 42.9585C41.8163 42.8533 41.8398 42.6024 41.9022 42.1978L41.5898 40.4092C41.6445 40.4092 41.6523 40.2554 41.6133 39.9803L41.4727 38.912C41.4414 38.6449 41.6679 38.4426 42.1678 38.2969H42.1912ZM39.3873 38.0622L38.8093 38.0945C38.6063 38.2079 38.5204 38.3535 38.5438 38.5316C38.5594 38.6773 38.7156 38.8148 39.0046 38.9524L39.2702 38.8229L39.8716 38.742C40.3792 38.6692 40.676 38.9524 40.7541 39.5837C40.7463 39.9317 40.7541 40.2069 40.7776 40.4092L40.8947 41.3075C40.9259 41.5341 40.9728 41.8012 41.0431 42.1088C41.0197 42.1573 41.0119 42.2302 41.0275 42.3273C41.09 42.5701 41.1212 42.7319 41.129 42.7967C41.0978 42.9909 41.09 43.1204 41.0978 43.1932L41.1134 43.3227C41.1368 43.4765 41.1915 43.695 41.2774 43.954C41.2774 43.9864 41.2618 44.1401 41.2071 44.3991L41.3399 44.8119L41.3008 45.168C41.3555 45.168 41.4024 45.3379 41.4492 45.7102C41.4883 46.0178 41.254 46.2201 40.7541 46.3334C40.6213 46.3496 40.4183 46.3658 40.1449 46.3739C39.6138 46.4467 39.3873 46.7866 39.4654 47.3855C39.5669 47.5716 39.6997 47.6526 39.8637 47.6364C40.1293 47.4583 40.2855 47.3612 40.3558 47.3531C40.801 47.4664 41.2384 47.5069 41.6757 47.4745C41.6601 47.3774 42.2303 47.2317 43.3784 47.0213C43.4721 47.0699 43.558 47.0942 43.6283 47.078H43.6752C43.8001 47.0537 43.9329 47.0213 44.0657 46.9728L44.2688 46.9889L44.4718 46.9161C44.8233 46.4872 45.1435 46.2525 45.4403 46.212C45.6278 45.8802 45.7762 45.6859 45.8933 45.6293C45.9558 45.2813 46.1511 44.8685 46.4713 44.3748C46.4713 43.7193 46.5103 43.2499 46.5806 42.9666C46.5103 42.6105 46.4713 42.4163 46.4635 42.3758C46.44 42.1735 46.3932 41.7608 46.3385 41.1214C46.2526 40.7896 46.1901 40.6196 46.1511 40.6277C45.9714 39.697 45.7684 39.2033 45.5575 39.1548C45.2607 38.4911 45.0029 38.1755 44.7843 38.2079C44.5265 37.9246 44.3391 37.7627 44.2375 37.7223C43.558 37.6656 43.0972 37.5928 42.8551 37.5118L42.6989 37.5685C42.5895 37.5847 42.4412 37.5928 42.2615 37.5928C42.1287 37.6656 42.0428 37.7061 41.9882 37.7142C41.9647 37.7142 41.8241 37.7142 41.5742 37.6818L41.2149 37.7708L40.8478 37.7385C40.8088 37.7385 40.3167 37.8518 39.3795 38.0703L39.3873 38.0622Z" stroke="#1A6650" stroke-opacity="0.22" stroke-width="0.75" stroke-miterlimit="10"/>
<path d="M52.2436 36.2574C52.1967 36.2574 52.0405 36.2412 51.7828 36.1845L49.3616 36.6863C49.3069 36.6701 49.1741 36.662 48.9476 36.6539C48.8383 36.6701 48.6899 36.7025 48.5102 36.7591C48.0963 36.7834 47.737 36.8158 47.4246 36.8563C46.9872 36.9129 46.7295 37.0505 46.6592 37.2609L46.6748 37.3904C46.706 37.6575 46.8701 37.8355 47.1512 37.9246C47.4012 37.7465 47.5808 37.6575 47.6823 37.6413C47.8932 37.6089 48.0807 37.6008 48.2525 37.6008C48.5961 37.5523 48.7992 37.7546 48.8539 38.1997L48.9945 39.2842C49.0413 39.6484 49.0335 39.9236 48.9788 40.1016L49.0491 40.3444L49.0804 40.6034L49.0491 40.6843C49.0491 40.6843 49.1351 40.83 49.2288 41.1295C49.2053 41.3803 49.2132 41.7769 49.26 42.3272C49.3069 42.4729 49.3381 42.6429 49.3616 42.8371C49.3694 42.9019 49.3381 43.0475 49.26 43.2822L49.5256 44.739C49.5568 44.9656 49.4787 45.0951 49.2913 45.1194H49.2522C49.1038 45.1437 48.9007 45.1437 48.6352 45.1194H48.5961C47.9635 45.2974 47.6823 45.605 47.737 46.0501L47.7526 46.1715C47.9088 46.3819 48.2056 46.4629 48.6352 46.3981C48.6899 46.3981 48.7602 46.3334 48.8539 46.2362L49.057 46.212C49.0648 46.301 49.1429 46.3738 49.2913 46.4386L49.4943 46.4143L49.6115 46.0096C49.8614 46.0663 49.9942 46.0906 50.0254 46.0825L50.4003 45.864C50.4159 45.9934 50.9939 46.0177 52.1186 45.9287C52.2514 45.9125 52.431 45.8154 52.6575 45.6373C52.9855 45.7102 53.2277 45.7345 53.3917 45.7102H53.4698L53.7275 45.4917C53.8291 45.4755 53.954 45.5079 54.1024 45.5726C54.1337 45.5726 54.1727 45.5483 54.2118 45.5079L54.1883 45.5969H54.2664C54.3524 45.5726 54.4773 45.4836 54.6335 45.3136H54.9225C54.9225 45.3136 55.0006 45.257 55.0631 45.1275C55.0475 44.1239 55.0631 43.3227 55.1256 42.7238C55.024 42.222 54.8678 41.9388 54.6492 41.8821L54.571 41.9388V41.8578L54.1962 41.9064C54.0243 41.9307 53.8759 42.1249 53.7431 42.481L53.7822 42.8209C53.7978 42.9342 53.8056 43.088 53.7978 43.2822C53.8369 43.3308 53.8525 43.3794 53.8603 43.4036C53.8525 43.5736 53.8213 43.6626 53.7666 43.6707C53.7041 43.954 53.6494 44.1482 53.6026 44.2453C53.3761 44.3748 53.2589 44.4638 53.2667 44.5124H53.2199L53.212 44.4315L52.9309 44.4719V44.5529C52.9309 44.5529 52.8996 44.5529 52.8996 44.5205L52.7044 44.5852C52.6185 44.5933 52.4623 44.5852 52.2436 44.5205C52.2279 44.4153 51.8531 44.3505 51.1111 44.3263C50.9471 44.5205 50.8533 44.6176 50.8221 44.6257C50.6034 44.6581 50.4706 44.4881 50.4316 44.1239C50.4159 44.0025 50.4316 43.8407 50.4941 43.6464C50.4706 43.6464 50.4003 43.5331 50.2832 43.2903C50.2597 42.8857 50.2285 42.5539 50.1895 42.2706L50.1426 41.8902C50.1035 41.5827 50.3222 41.3965 50.8065 41.3318L51.0486 41.2994C51.3454 41.2589 51.5875 41.4127 51.7593 41.7526C51.8374 42.3434 52.0171 42.6914 52.2982 42.7966L52.4623 42.7724C52.6966 42.5053 52.8059 42.2949 52.7825 42.133C52.6575 41.3318 52.556 40.8705 52.4857 40.7653C52.4857 40.741 52.4623 40.2392 52.4154 39.268C52.2514 38.8876 52.103 38.7096 51.978 38.7258C51.8374 38.742 51.7515 38.8148 51.7203 38.9362C51.5094 38.9686 51.4391 39.2599 51.5094 39.8103C51.5406 40.0692 51.3766 40.2635 51.0095 40.393L50.8065 40.4173L50.7284 40.393C50.7284 40.393 50.7206 40.4334 50.6893 40.4334L50.5253 40.4577C50.3066 40.4901 50.0645 40.3768 49.7911 40.134C49.7833 40.0693 49.7677 39.8588 49.7443 39.5027L49.6349 39.2195V39.1304C49.6349 38.8553 49.6427 38.6934 49.6349 38.661V38.6206C49.6271 38.572 49.5724 38.3535 49.4709 37.9488V37.9003C49.4709 37.6413 49.5646 37.5037 49.7365 37.4794C49.7365 37.4552 49.7208 37.439 49.6974 37.4471V37.3985C49.6974 37.3985 49.7286 37.4066 49.7365 37.439C49.8146 37.4309 49.8848 37.3904 49.9708 37.3176C50.4003 37.2852 50.6503 37.2609 50.7362 37.2528C50.908 37.0829 51.1111 36.9696 51.3454 36.9129C51.5094 37.1476 51.6968 37.2528 51.9155 37.2205H51.9936C52.0639 37.2043 52.1811 37.1557 52.3451 37.0748C52.3998 37.0667 52.431 37.0748 52.431 37.0991C53.1574 37.2528 53.5401 37.4713 53.5713 37.7546L53.5869 37.8841L53.4385 38.6287V38.7177C53.5401 38.8148 53.626 38.8634 53.7119 38.8553C53.954 39.0738 54.1102 39.179 54.204 39.1709H54.2508C54.4305 39.1385 54.5086 38.9605 54.5008 38.6206L54.4695 38.3697C54.0946 37.1072 53.8525 36.484 53.7431 36.5002C53.7431 36.4678 53.7432 36.4516 53.7744 36.4516C53.7744 36.4273 53.6963 36.3383 53.5401 36.1845C53.3604 36.055 53.0012 35.9903 52.4544 35.9903C52.4544 36.0146 52.3685 36.0874 52.1967 36.2007L52.2436 36.2574Z" stroke="#1A6650" stroke-opacity="0.22" stroke-width="0.75" stroke-miterlimit="10"/>
<path d="M58.9993 35.27H58.7103C58.2495 35.5533 57.9215 35.7394 57.7262 35.8284C57.4216 36.3221 57.2342 36.573 57.1717 36.5811C56.9999 36.9453 56.8905 37.1233 56.828 37.1314C56.8749 37.4794 56.8046 37.7708 56.6172 37.9974C56.6484 38.4911 56.625 39.0576 56.5469 39.7051L56.5781 39.9479C56.6094 40.1745 56.5859 40.4496 56.5156 40.7653C56.5234 40.8462 56.5781 40.9514 56.6796 41.0809V41.3399L56.9061 41.8497C56.9218 42.0035 56.9374 42.1977 56.9374 42.4405C57.0858 42.74 57.1639 42.91 57.1717 42.9585C57.2107 43.2984 57.57 43.7435 58.2339 44.2939C58.2573 44.4234 58.4604 44.6257 58.8431 44.8847C59.507 45.0708 59.8663 45.1922 59.9131 45.2408L60.1865 45.1598H60.2646C60.3193 45.1437 60.4911 45.176 60.7644 45.2489C61.1862 45.0708 61.4752 44.9332 61.647 44.8361L62.428 44.561C62.5062 44.2939 62.5843 44.1563 62.6624 44.1482C62.7092 44.1482 62.8186 44.1482 62.9904 44.1887C63.0685 44.1806 63.0997 43.9863 63.0841 43.6221L63.3731 43.3308C63.3731 43.3308 63.3497 43.258 63.3184 43.2094C63.3028 43.1204 63.3809 42.9423 63.5371 42.6752C63.4903 42.133 63.5059 41.7931 63.5762 41.6555C63.3887 41.2023 63.1935 40.9838 62.9982 41.0081C62.9357 41.0081 62.7405 41.0728 62.4124 41.1699C62.2797 41.526 62.1937 41.7041 62.1547 41.7122C62.2094 42.1654 62.1547 42.4729 61.975 42.6348C62.0375 43.1042 61.7251 43.5655 61.0534 44.0268C60.8816 44.0511 60.7644 44.0106 60.7098 43.9054C60.6707 43.6221 60.3661 43.525 59.7803 43.606C59.6866 43.6707 59.5851 43.8002 59.4601 43.9944H59.2571C59.0462 43.695 58.8743 43.5169 58.7416 43.4522C58.4604 43.3551 58.2964 43.1285 58.2495 42.7643C57.8824 42.2625 57.6559 41.6231 57.5544 40.8624V40.5629C57.4529 40.1745 57.3904 39.964 57.3904 39.9074C57.3904 39.4784 57.4138 39.2195 57.4607 39.1304C57.4607 39.1062 57.4372 39.0657 57.406 39.009L57.4919 39.0414C57.4451 38.6772 57.4763 38.4021 57.5856 38.2159C57.5466 37.9246 57.6794 37.6413 57.9683 37.3661C57.9371 37.1395 58.0777 36.9615 58.3901 36.8401C58.5229 36.5973 58.6166 36.4759 58.6713 36.4678C58.7728 36.4516 58.8822 36.5002 59.0071 36.5892L59.1243 36.573C59.2492 36.484 59.3273 36.314 59.343 36.0793C59.999 36.0712 60.3349 36.1198 60.3505 36.2412C60.4208 36.5083 60.4911 36.6377 60.5614 36.6297C60.8425 36.6944 60.9988 36.8724 61.0378 37.1557C61.4127 37.5685 61.6236 37.9488 61.6704 38.2968C61.6704 38.4425 61.6626 38.5235 61.6704 38.5477V38.6287C61.9907 39.179 62.2562 39.438 62.4749 39.4056C62.5999 39.3894 62.6936 39.3328 62.7405 39.2437C62.9826 39.2114 63.0529 38.7905 62.9513 37.9893C62.6624 37.4552 62.514 37.1557 62.5061 37.0748V37.0262C62.553 36.8563 62.5999 36.7672 62.6311 36.7591C62.6155 36.3707 62.6155 35.9741 62.6467 35.5694C62.3499 34.9948 62.0531 34.7278 61.772 34.7601H61.6939C61.6548 34.7763 61.5845 34.8977 61.4908 35.1324C61.358 35.5209 61.2799 35.7151 61.2409 35.7151H61.194C61.0456 35.7394 60.9128 35.6747 60.8035 35.5209L60.7879 35.3995L60.8894 35.2133V35.1729C60.8816 35.1243 60.8504 35.1 60.7957 35.1C60.7723 35.1 60.6629 35.1486 60.4833 35.2295H60.413C60.2724 35.2619 60.2021 35.2376 60.1943 35.181C59.7647 35.181 59.4601 35.1162 59.2727 34.9706C59.093 35.0677 59.0071 35.1486 59.0149 35.2133L58.9993 35.27Z" stroke="#1A6650" stroke-opacity="0.22" stroke-width="0.75" stroke-miterlimit="10"/>
<path d="M70.6677 33.7242V33.7728C70.6677 33.7728 70.6287 33.7647 70.6209 33.7323C70.5974 33.7323 70.285 33.878 69.6992 34.1531C69.5352 34.3716 69.4259 34.485 69.3712 34.493C69.3243 34.493 69.1681 34.8572 68.9026 35.5775C68.5745 35.788 68.4418 36.1279 68.5043 36.6054C68.5745 36.9372 68.6605 37.091 68.7698 37.0748L68.9338 37.0505C68.9885 37.0505 69.0119 37.01 69.0041 36.9534C69.1759 36.9291 69.254 36.5811 69.2384 35.9093C69.4493 35.4157 69.543 35.1324 69.5352 35.0596C69.7695 34.922 69.957 34.752 70.0898 34.5659C70.4881 34.4445 70.7302 34.3393 70.8239 34.2583C70.8942 34.2503 71.0504 34.2988 71.2925 34.404C71.4253 34.3555 71.5034 34.3393 71.5269 34.3312H71.7299C71.8315 34.2988 71.933 34.2745 72.0501 34.2583H72.1282C72.1361 34.315 72.2142 34.3636 72.3469 34.3797C72.3938 34.3797 72.5969 34.5902 72.9561 35.0191C73.1202 34.9948 73.3467 35.4561 73.6278 36.403C73.6278 36.7996 73.5419 37.01 73.3779 37.0262C73.2373 37.4713 72.9796 37.7222 72.6125 37.7708C72.3157 38.2564 71.9877 38.6287 71.6128 38.8795C71.3472 38.9119 71.1598 39.0495 71.0504 39.2923C70.7536 39.3328 70.5584 39.5027 70.4646 39.7941C69.9648 40.1097 69.7149 40.312 69.7227 40.4092C69.34 40.9676 69.1213 41.6069 69.0666 42.311L69.1525 42.9747L69.1291 43.0637C69.2384 43.2175 69.3165 43.2984 69.3634 43.2903L69.4415 43.2337L69.4103 43.3227C69.4493 43.3227 69.6055 43.3793 69.8867 43.5169C70.4647 43.4036 70.8161 43.3065 70.9567 43.2418C71.0504 43.2256 71.1754 43.2256 71.3238 43.2418C71.3706 43.2013 71.4097 43.1851 71.4331 43.177C71.7377 43.1932 71.9408 43.1932 72.0501 43.177C72.1126 43.1689 72.2298 43.1123 72.3938 43.0071C72.8077 43.0071 73.3467 42.9747 74.0105 42.9099C74.1121 42.8695 74.2058 42.8452 74.2839 42.8371C74.5416 42.8857 74.6822 42.9099 74.6978 42.9018C74.7603 42.8371 74.8072 42.8047 74.8462 42.7966C74.8462 42.7724 74.8306 42.7562 74.8072 42.7643V42.7157C74.8072 42.7157 74.8384 42.7238 74.8462 42.7562C75.0415 42.5781 75.1196 42.3677 75.0884 42.133L74.9009 41.8983V41.8174L74.8775 41.3965L74.7525 41.3318H74.7057L74.5651 41.4855C74.4635 41.8902 74.3308 42.1087 74.1511 42.133C73.9324 42.0763 73.7919 42.0602 73.7372 42.0682C73.5732 42.1411 73.2842 42.2382 72.878 42.3596C72.5656 42.3434 72.3469 42.3434 72.222 42.3596H72.1751C72.1751 42.3596 71.972 42.4324 71.6284 42.5619H71.5893C71.3238 42.5215 71.1598 42.4972 71.0973 42.5134H71.0192C71.0192 42.5134 70.8083 42.5943 70.4725 42.7238C70.1444 42.7643 69.957 42.5538 69.8945 42.0844C69.8633 41.8174 70.0116 41.5017 70.3475 41.1375C70.5193 40.7733 70.6755 40.5872 70.8083 40.571C70.9177 40.2716 71.1051 40.1016 71.3628 40.0692C71.5112 39.7698 71.6128 39.616 71.6752 39.6079C71.7768 39.5917 72.1282 39.4056 72.7453 39.0414C73.0342 39.0009 73.2217 38.7905 73.3154 38.4101C73.7997 37.9245 74.0496 37.6332 74.0652 37.5442C74.2605 37.5199 74.3698 36.9776 74.3854 35.9336C74.1121 34.9867 73.9168 34.5173 73.7997 34.5335C73.7762 34.5335 73.7606 34.5497 73.7684 34.574H73.7216C73.7216 34.574 73.7294 34.5416 73.7606 34.5335L73.0577 33.8699C72.5031 33.8294 71.9642 33.7485 71.4331 33.6271C71.3238 33.6433 71.1832 33.6756 70.9958 33.7323L70.6209 33.6999C70.6209 33.6999 70.6365 33.7323 70.6677 33.7323V33.7242Z" stroke="#1A6650" stroke-opacity="0.22" stroke-width="0.75" stroke-miterlimit="10"/>
<path d="M78.3535 33.7323C78.5253 33.4571 78.6347 33.3115 78.6659 33.3115C78.7518 33.2953 78.8221 33.3115 78.869 33.3276L79.1033 33.2467H79.1423C79.2048 33.2305 79.3454 33.2548 79.5641 33.3115C79.6109 33.2791 79.65 33.2629 79.6734 33.2548C79.7359 33.2467 79.8609 33.271 80.0483 33.3276C80.1811 33.2872 80.2592 33.2629 80.2826 33.2548C80.4076 33.2386 80.5404 33.3438 80.6888 33.5785C81.1027 33.5947 81.337 33.8294 81.3917 34.2826C81.6026 34.7844 81.7588 35.0353 81.8525 35.0191C81.9384 35.5128 82.04 35.8689 82.1493 36.0874C82.1493 36.136 82.1493 36.3059 82.1415 36.5973C82.2586 36.9048 82.3289 37.0991 82.3367 37.1638C82.3367 38.0702 82.2743 38.5235 82.1415 38.5477C82.1883 38.9362 82.1493 39.268 82.0165 39.5351C82.0165 39.7941 81.8916 40.0369 81.6651 40.2635C81.462 40.5791 81.2042 40.8138 80.8918 40.9595C80.8294 41.0242 80.4466 41.1456 79.7593 41.3237C79.5875 41.348 79.4547 41.2913 79.3688 41.1699C78.869 40.9757 78.5409 40.7491 78.3847 40.4982C78.1582 40.134 78.0254 39.956 77.9942 39.964C77.877 39.3894 77.7599 39.1062 77.6427 39.1224C77.51 38.4102 77.385 38.0621 77.2678 38.0783L77.3147 37.4794L77.1194 36.9129L77.221 36.136C77.4397 35.3186 77.5334 34.752 77.4943 34.4526C77.5803 34.4445 77.8302 34.226 78.2285 33.797C78.2285 33.7728 78.2051 33.7647 78.1816 33.7647V33.7242C78.1816 33.7242 78.2207 33.7242 78.2285 33.7566L78.3457 33.7404L78.3535 33.7323ZM79.3923 32.2836C78.8846 32.3565 78.4394 32.494 78.0567 32.7126C78.0567 32.753 77.7677 33.0363 77.1897 33.5543L77.2366 33.6271C77.1585 33.6352 77.1273 33.7161 77.1429 33.8618C76.7836 34.4364 76.6118 34.8087 76.6352 34.9787C76.5337 35.1001 76.4712 35.6747 76.4478 36.7025C76.4556 36.7915 76.5024 36.9534 76.5883 37.1881C76.5962 37.2609 76.5883 37.4875 76.5493 37.8679L76.6118 38.3616C76.5883 38.5639 76.5805 38.6853 76.5805 38.7096C76.604 38.8472 76.6352 38.9119 76.6821 38.9038C76.7602 39.4865 77.0257 40.0854 77.4787 40.6924C77.5021 40.8786 77.7286 41.1214 78.1504 41.4127C78.6737 41.7122 78.9393 41.8983 78.9471 41.9711C79.2751 42.0845 79.4938 42.2139 79.6109 42.3434C79.7593 42.3272 79.9077 42.2868 80.0483 42.2463C80.3061 42.2382 80.5638 42.2139 80.8137 42.1816L80.9309 42.1654C81.048 42.1492 81.1574 42.1087 81.2433 42.0359C81.2433 42.0116 81.2277 42.0035 81.1964 42.0035V41.955C81.1964 41.955 81.2355 41.9631 81.2433 41.9954L81.4229 41.8417L81.3683 41.7607H81.4151C81.3995 41.6312 81.6651 41.4451 82.204 41.2185C82.368 41.1376 82.493 40.9433 82.5789 40.6196H82.532C82.6023 40.4415 82.657 40.3525 82.696 40.3444C82.7819 39.8265 82.9538 39.3651 83.2193 38.9605C83.1803 38.4425 83.1881 38.0864 83.2506 37.9003C83.2193 37.6575 83.1646 37.35 83.0865 36.9858C83.1256 36.8725 83.1412 36.7672 83.1334 36.6863C83.0397 35.9417 82.9616 35.5695 82.9069 35.5775C82.657 34.6792 82.4773 34.2341 82.368 34.2503C82.368 34.226 82.3758 34.2098 82.407 34.2017C82.3524 34.0398 82.3055 33.9589 82.2508 33.967C82.2508 33.9427 82.2586 33.9265 82.2899 33.9184C82.1571 33.789 82.0165 33.6109 81.8525 33.3843C81.8213 33.3843 81.8135 33.4005 81.8135 33.4248H81.7744C81.7744 33.4248 81.7744 33.3924 81.8056 33.3843C81.751 33.2791 81.7041 33.2224 81.6651 33.2305C81.2511 32.6721 80.8762 32.4131 80.5482 32.4536C80.3451 32.3403 79.9624 32.2432 79.4157 32.1784C79.3844 32.1784 79.3766 32.2027 79.3766 32.227L79.3923 32.2836ZM86.4216 30.5841C86.5075 30.8511 86.6481 30.9725 86.8355 30.9483H86.8824C86.9527 30.8835 86.9917 30.843 86.9839 30.8026L86.9683 30.6731C86.8199 30.4708 86.6715 30.3817 86.5231 30.3979C86.484 30.3979 86.445 30.4627 86.4216 30.5841Z" stroke="#1A6650" stroke-opacity="0.22" stroke-width="0.75" stroke-miterlimit="10"/>
<path d="M87.0854 32.5346C87.2572 32.2594 87.3666 32.1137 87.3978 32.1056C87.4837 32.0975 87.554 32.1056 87.6009 32.1218L87.8352 32.0409H87.8743C87.9367 32.0247 88.0773 32.049 88.296 32.1056C88.3429 32.0732 88.3819 32.0571 88.4054 32.049C88.4678 32.0409 88.5928 32.0651 88.7803 32.1218C88.913 32.0732 88.9911 32.0571 89.0146 32.049C89.1395 32.0328 89.2723 32.138 89.4207 32.3727C89.8346 32.3889 90.069 32.6236 90.1236 33.0768C90.3345 33.5786 90.4907 33.8295 90.5844 33.8133C90.6704 34.307 90.7719 34.6631 90.8812 34.8816C90.8812 34.9301 90.8812 35.1001 90.8734 35.3914C90.9906 35.699 91.0609 35.8932 91.0687 35.958C91.0687 36.8563 91.0062 37.3176 90.8734 37.3419C90.9203 37.7304 90.8812 38.0622 90.7485 38.3293C90.7406 38.5882 90.6235 38.8229 90.397 39.0576C90.1939 39.3733 89.9362 39.608 89.6238 39.7537C89.5613 39.8184 89.1786 39.9398 88.4913 40.1178C88.3194 40.1421 88.1867 40.0855 88.1008 39.9641C87.6087 39.7698 87.2729 39.5432 87.1167 39.2923C86.8902 38.9282 86.7574 38.7501 86.7261 38.7501C86.609 38.1755 86.4918 37.8922 86.3747 37.9084C86.2419 37.1962 86.1169 36.8482 85.9998 36.8644L86.0466 36.2655L85.8514 35.699L85.9529 34.922C86.1716 34.1046 86.2653 33.5381 86.2263 33.2387C86.3122 33.2225 86.5621 33.012 86.9604 32.5831C86.9604 32.5588 86.9448 32.5507 86.9136 32.5507V32.5103C86.9136 32.5103 86.9526 32.5103 86.9604 32.5426L87.0776 32.5265L87.0854 32.5346ZM88.1242 31.0859C87.6165 31.1587 87.1713 31.2963 86.7886 31.5148C86.7886 31.5553 86.4996 31.8385 85.9217 32.3565L85.9685 32.4293C85.8904 32.4374 85.8592 32.5184 85.8748 32.664C85.5155 33.2387 85.3437 33.6109 85.3671 33.7809C85.2656 33.9023 85.2031 34.4769 85.1797 35.5047C85.1875 35.5938 85.2422 35.7556 85.3203 35.9903C85.3281 36.0632 85.3203 36.2898 85.2812 36.6702L85.3437 37.1638C85.3203 37.3662 85.3125 37.4876 85.3125 37.5118C85.3359 37.6494 85.3671 37.7142 85.414 37.7061C85.4921 38.2888 85.7577 38.8877 86.2107 39.4947C86.2341 39.6808 86.4606 39.9236 86.8823 40.215C87.4056 40.5144 87.6712 40.7006 87.679 40.7734C88.007 40.8867 88.2257 41.0162 88.3429 41.1538C88.4913 41.1295 88.6397 41.0971 88.7803 41.0567C89.038 41.0486 89.2957 41.0243 89.5457 40.9919L89.6628 40.9757C89.78 40.9595 89.8893 40.9191 89.9752 40.8462C89.9752 40.822 89.9596 40.8139 89.9284 40.8139V40.7653C89.9284 40.7653 89.9674 40.7734 89.9752 40.8058L90.1627 40.6601L90.108 40.5792H90.1549C90.1393 40.4497 90.4048 40.2635 90.9437 40.0369C91.1077 39.956 91.2327 39.7617 91.3186 39.438H91.2717C91.342 39.26 91.3967 39.1709 91.4358 39.1629C91.5217 38.6449 91.6935 38.1836 91.9591 37.7789C91.92 37.261 91.9278 36.9049 91.9903 36.7187C91.9591 36.4759 91.9044 36.1684 91.8263 35.8042C91.8653 35.6909 91.881 35.5857 91.8731 35.5047C91.7794 34.7602 91.7013 34.3879 91.6466 34.396C91.3967 33.4976 91.2171 33.0525 91.1077 33.0687C91.1077 33.0444 91.1155 33.0282 91.1468 33.0282C91.0921 32.8664 91.0452 32.7854 90.9906 32.7935C90.9906 32.7693 90.9984 32.7531 91.0296 32.7531C90.8969 32.6236 90.7485 32.4455 90.5922 32.2189C90.561 32.2189 90.5532 32.2351 90.5532 32.2675H90.5141C90.5141 32.2675 90.522 32.2351 90.5454 32.227C90.4907 32.1218 90.4439 32.0651 90.4048 32.0732C89.9909 31.5148 89.616 31.2558 89.2879 31.2963C89.0849 31.183 88.7022 31.0859 88.1554 31.0211C88.1242 31.0211 88.1164 31.0454 88.1164 31.0697L88.1242 31.0859ZM95.1535 29.3863C95.2394 29.6534 95.38 29.7748 95.5674 29.7505H95.6143C95.6846 29.6858 95.7236 29.6453 95.7158 29.6048L95.7002 29.4753C95.5518 29.273 95.4034 29.184 95.255 29.2002C95.216 29.2002 95.1769 29.2649 95.1535 29.3863Z" stroke="#1A6650" stroke-opacity="0.22" stroke-width="0.75" stroke-miterlimit="10"/>
<path d="M96.0515 30.2522V30.3008C96.0515 30.3008 96.0125 30.2927 96.0046 30.2603C95.9812 30.2603 95.6766 30.406 95.083 30.6812C94.919 30.8997 94.8097 31.013 94.755 31.0211C94.7081 31.0211 94.5519 31.3934 94.2864 32.1056C93.9583 32.316 93.8256 32.6559 93.888 33.1334C93.9583 33.4652 94.0443 33.619 94.1536 33.6028L94.3176 33.5785C94.3723 33.5785 94.3957 33.5381 94.3879 33.4814C94.5597 33.4571 94.6378 33.1091 94.6222 32.4374C94.8253 31.9437 94.9268 31.6605 94.919 31.5876C95.1533 31.45 95.3408 31.2801 95.4735 31.0939C95.8719 30.9725 96.114 30.8673 96.2077 30.7864C96.278 30.7783 96.442 30.8269 96.6763 30.9321C96.8091 30.8916 96.8872 30.8673 96.9106 30.8592H97.1137C97.2152 30.8269 97.3168 30.8026 97.4339 30.7864H97.512C97.5198 30.843 97.5979 30.8916 97.7307 30.9078C97.7776 30.9078 97.9807 31.1182 98.3399 31.5472C98.504 31.5229 98.7304 31.9842 99.0116 32.9311C99.0116 33.3276 98.9257 33.5381 98.7617 33.5543C98.6211 33.9994 98.3634 34.2503 97.9963 34.2988C97.6995 34.7844 97.3715 35.1567 96.9966 35.4076C96.731 35.44 96.5436 35.5775 96.4342 35.8203C96.1374 35.8608 95.9422 36.0308 95.8484 36.3221C95.3486 36.6378 95.0986 36.8401 95.1065 36.9372C94.7237 37.4956 94.5051 38.135 94.4504 38.8391L94.5363 39.5027L94.5129 39.5918C94.6222 39.7455 94.7003 39.8265 94.7472 39.8184L94.8253 39.7617L94.794 39.8507C94.8331 39.8507 94.9893 39.9074 95.2705 40.045C95.8484 39.9317 96.1999 39.8346 96.3405 39.7698C96.4342 39.7536 96.5592 39.7536 96.7076 39.7698C96.7544 39.7293 96.7935 39.7132 96.8169 39.7051C97.1215 39.7213 97.3246 39.7213 97.4339 39.7051C97.4964 39.7051 97.6136 39.6403 97.7776 39.5351C98.1915 39.5351 98.7305 39.5027 99.3943 39.438C99.4959 39.3975 99.5896 39.3732 99.6677 39.3652C99.9332 39.4137 100.066 39.438 100.082 39.4299C100.144 39.3652 100.191 39.3328 100.23 39.3247C100.23 39.3004 100.214 39.2923 100.191 39.2923V39.2438C100.191 39.2438 100.222 39.2518 100.23 39.2842C100.425 39.0981 100.503 38.8957 100.472 38.661L100.285 38.4263V38.3454L100.261 37.9246L100.128 37.8598H100.082L99.9411 38.0055C99.8395 38.4102 99.7067 38.6287 99.5271 38.653C99.3084 38.5963 99.1678 38.5801 99.1132 38.5882C98.9491 38.661 98.6602 38.7582 98.254 38.8796C97.9416 38.8634 97.7229 38.8634 97.598 38.8796H97.5511C97.5511 38.8796 97.348 38.9524 97.0044 39.0819H96.9653C96.6998 39.0414 96.5357 39.0252 96.4733 39.0333H96.3952C96.3952 39.0333 96.1843 39.1143 95.8484 39.2438C95.5204 39.2923 95.333 39.0738 95.2705 38.6044C95.2392 38.3373 95.3876 38.0136 95.7235 37.6575C95.8953 37.2933 96.0515 37.1072 96.1843 37.091C96.2936 36.7915 96.4811 36.6216 96.7388 36.5892C96.8872 36.2897 96.9887 36.136 97.0512 36.1279C97.1528 36.1117 97.5042 35.9256 98.1212 35.5614C98.4024 35.5209 98.5977 35.3105 98.6914 34.9301C99.1756 34.4445 99.4256 34.1532 99.4334 34.0641C99.6286 34.0398 99.738 33.4976 99.7536 32.4536C99.4802 31.5067 99.285 31.0373 99.1678 31.0535C99.1444 31.0535 99.1366 31.0697 99.1366 31.0939H99.0897C99.0897 31.0939 99.0975 31.0616 99.1288 31.0535L98.4258 30.3898C97.8713 30.3494 97.3324 30.2684 96.8013 30.147C96.692 30.1632 96.5436 30.1956 96.3639 30.2522L95.989 30.2199C95.989 30.2199 96.0125 30.2522 96.0359 30.2522H96.0515Z" stroke="#1A6650" stroke-opacity="0.22" stroke-width="0.75" stroke-miterlimit="10"/>
<path fill-rule="evenodd" clip-rule="evenodd" d="M156.113 148.291C150.302 153.204 140.602 153.56 133.612 148.696C128.597 145.208 123.427 143.233 117.257 143.67C113.57 143.937 111.774 145.159 111.719 149.092C111.672 152.273 111.274 155.445 110.993 159.087C120.084 157.38 127.621 158.893 134.814 163.984C137.735 166.056 142.429 167.124 145.858 166.379C152.341 164.963 158.487 161.904 164.767 159.524C164.829 162.09 164.884 164.655 164.947 167.221C164.306 165.975 163.666 164.72 162.533 162.511C159.3 163.895 155.785 165.408 152.278 166.913C152.411 167.585 152.552 168.265 152.684 168.937C156.73 168.5 160.776 168.063 164.822 167.634C163.424 168.305 161.986 169.649 160.635 169.552C144.523 168.386 128.332 167.699 112.383 165.287C107.58 164.558 102.964 165.068 98.3478 164.405C94.7551 163.895 90.8265 162.956 87.9132 160.892C80.0873 155.373 72.1754 155.219 63.6153 158.367C60.413 159.541 56.9062 159.816 53.5321 160.496C53.4384 159.937 53.3447 159.379 53.2432 158.82C61.0457 157.542 68.817 155.745 76.6742 155.219C80.0482 155 84.0237 156.757 86.9604 158.796C92.0293 162.317 97.4028 163.207 103.143 162.721C106.892 162.406 109.993 161.119 109.735 156.052C109.579 152.993 110.141 149.885 110.423 146.235C101.05 149.853 93.0524 148.008 84.9453 142.909C78.7049 138.984 71.3944 140.068 64.4041 142.092C60.9754 143.087 57.3905 143.524 53.6962 143.492C57.3748 141.112 64.4432 144.754 64.5994 136.184C64.779 137.365 64.9587 138.555 65.3101 140.813C67.2549 139.154 68.7779 137.859 69.8948 136.904C71.0976 137.228 73.8781 138.199 73.964 137.98C76.3618 132.121 77.7364 137.819 79.5406 138.458C79.9155 137.705 80.2982 136.961 80.4622 136.637C81.704 137.851 82.9537 139.073 84.7344 140.821C84.8828 138.952 84.9531 137.98 85.0234 137.017C85.2421 137.001 85.453 136.985 85.6639 136.961C85.8201 138.401 85.9685 139.842 86.3043 142.974C87.0932 140.441 87.3821 139.494 87.6243 138.709C87.9289 143.597 90.5063 145.661 97.8402 146.664C105.885 147.773 109.462 145.539 111.868 137.932C112.071 139.34 112.281 140.748 112.578 142.763C121.357 140.764 128.917 143.33 136.361 148.412C142.461 152.58 149.529 150.541 156.121 148.275L156.113 148.291ZM134.291 166.315C124.52 158.327 114.336 157.509 110.36 164.332C118.186 164.979 125.809 165.61 134.291 166.315Z" fill="#1A6650" fill-opacity="0.22"/>
<path fill-rule="evenodd" clip-rule="evenodd" d="M113.82 113.701C113.828 117.691 113.836 121.681 113.851 126.286C122.638 124.562 129.909 127.824 137.298 132.42C142.484 135.642 148.912 135.383 154.699 132.251C156.417 131.32 158.151 129.758 159.909 129.701C164.314 129.547 167.438 128.406 167.61 123.178C167.165 128.746 166.719 134.306 166.266 139.874C166.212 139.146 166.141 138.409 166.094 137.681C165.61 129.677 163.97 128.73 157.136 132.696C148.951 137.446 141.031 136.88 133.111 131.927C130.589 130.349 127.855 128.77 125.02 128.18C121.802 127.508 117.811 126.82 115.241 128.244C113.406 129.264 113.359 133.748 112.5 136.677C112.352 137.195 112.117 137.689 111.922 138.199C111.633 135.577 111.352 132.955 111.203 131.644C105.244 131.433 99.2146 130.025 93.8099 131.36C88.6628 132.631 88.7175 127.006 85.0701 126.788C84.7733 128.002 84.4687 129.24 83.8048 131.951C83.5471 128.69 83.4143 126.958 83.2737 125.209C76.0413 122.45 69.3791 124.7 62.631 126.966C60.038 127.84 57.1481 127.775 54.3364 127.427C67.2703 123.55 79.8997 118.751 92.9195 128.511C96.8637 131.465 104.572 132.404 110.126 128.091C111.274 127.2 111.781 125.145 112.141 123.518C112.859 120.281 113.258 116.971 113.796 113.693L113.82 113.701Z" fill="#1A6650" fill-opacity="0.22"/>
<path fill-rule="evenodd" clip-rule="evenodd" d="M168.485 118.435C166.251 114.073 163.213 112.932 158.839 115.765C149.521 121.794 140.961 120.426 131.956 114.729C128.402 112.479 123.669 111.912 119.381 111.378C117.616 111.16 115.609 113.021 113.719 113.936C112.328 114.041 110.821 113.814 109.571 114.3C102.636 117.043 95.7704 116.671 89.7642 112.43C81.7664 106.781 73.7218 106.603 64.9742 109.792C61.8188 110.941 58.3354 111.143 55.0004 111.783C54.9223 111.313 54.8364 110.844 54.7583 110.375C61.975 108.983 69.1606 106.878 76.4242 106.482C80.4933 106.263 85.0858 108.181 88.7801 110.35C97.6917 115.579 105.135 115.562 113.789 109.509C114.937 108.707 116.788 108.602 118.272 108.724C133.682 109.921 149.084 111.338 164.501 112.446C168.758 112.746 169.773 114.583 168.485 118.452V118.435ZM158.729 113.531C148.943 112.722 140.032 111.985 130.519 111.2C140.453 119.496 149.216 120.273 158.729 113.531Z" fill="#1A6650" fill-opacity="0.22"/>
<path fill-rule="evenodd" clip-rule="evenodd" d="M164.829 158.594C164.821 156.481 164.751 154.361 164.821 152.241C165.017 146.535 164.064 145.774 158.854 147.571C157.893 147.903 156.894 148.145 155.917 148.429C159.245 147.134 162.58 145.847 165.907 144.552C165.548 149.23 165.196 153.908 164.837 158.586L164.829 158.594Z" fill="#1A6650" fill-opacity="0.22"/>
<path fill-rule="evenodd" clip-rule="evenodd" d="M50.4548 52.0553C64.9664 47.8873 90.0532 56.9355 102.073 79.6125C112.961 100.145 109.095 130.567 93.8881 146.146C73.9483 166.582 47.401 167.148 27.9611 154.288C6.2249 139.915 -2.57734 112.778 5.25642 87.56C12.0827 65.5628 33.2096 52.3304 47.4869 52.4276C31.4523 56.5551 18.3622 65.1176 10.6221 80.4056C2.85865 95.7341 2.38222 111.945 8.76326 127.921C18.7058 152.815 44.4252 163.725 63.7324 160.374C87.0228 156.336 106.291 136.224 106.416 105.753C106.455 95.7017 103.581 86.427 98.5743 77.8968C93.4976 69.2452 86.7807 62.4469 77.8535 57.9552C69.1606 53.5849 59.9287 52.4033 50.447 52.0715L50.4548 52.0553Z" fill="#1A6650" fill-opacity="0.22"/>
<path fill-rule="evenodd" clip-rule="evenodd" d="M90.8106 115.554C87.7958 134.662 69.8321 148.364 49.986 144.512C29.9681 140.619 17.37 121.559 20.5957 100.582C23.8448 79.4183 42.449 66.0888 62.3185 70.0221C82.3364 73.9797 94.7548 93.816 90.8106 115.554ZM22.9154 99.0523C18.7134 117.594 30.4445 137.268 47.885 141.873C65.2083 146.446 84.1172 136.427 88.6862 116.291C93.0756 96.9238 81.5788 76.6828 63.6697 72.361C45.1358 67.8936 27.336 79.5559 22.9154 99.0523Z" fill="#1A6650" fill-opacity="0.22"/>
<path fill-rule="evenodd" clip-rule="evenodd" d="M11.7079 84.6869C14.1291 84.8892 16.5581 85.0835 20.2836 85.391C18.1358 82.9064 16.5269 81.0369 14.9101 79.1593C15.2538 78.7384 15.5974 78.3095 15.9411 77.8806C18.7606 79.4183 21.5802 80.956 24.3997 82.4937C24.2357 82.9064 24.0717 83.3192 23.8998 83.74C22.4549 83.0845 21.0022 82.437 18.706 81.4092C20.3461 83.6105 21.424 85.0592 22.8689 87.0016C20.6429 87.0825 18.9246 87.1472 16.6284 87.2282C18.1436 88.5069 19.3074 89.4942 20.4789 90.4816C20.2993 90.7811 20.1196 91.0805 19.9322 91.3719C17.058 89.7128 14.1838 88.0537 11.3096 86.3865C11.4423 85.8199 11.5673 85.2534 11.7001 84.6788L11.7079 84.6869Z" fill="#1A6650" fill-opacity="0.22"/>
<path fill-rule="evenodd" clip-rule="evenodd" d="M58.8585 149.748C58.8117 152.823 58.7648 155.907 58.7101 158.982C58.3899 159.152 58.0619 159.314 57.7338 159.484C56.2186 157.793 54.7112 156.101 52.8836 154.07C52.5165 156.02 52.2276 157.574 51.9308 159.128C51.6027 159.128 51.2669 159.144 50.9389 159.144C50.7827 156.417 50.5561 153.697 50.5874 150.978C50.5874 150.727 52.7587 149.999 53.1336 150.363C54.3988 151.601 55.3126 153.228 56.7107 155.203C57.1481 152.872 57.4527 151.269 57.7495 149.667C58.1166 149.691 58.4836 149.724 58.8507 149.748H58.8585Z" fill="#1A6650" fill-opacity="0.22"/>
<path fill-rule="evenodd" clip-rule="evenodd" d="M72.9097 70.7829C75.737 68.6139 78.5644 66.453 81.3917 64.2841C81.7432 64.6078 82.0868 64.9396 82.4383 65.2633C81.7822 68.7596 81.1261 72.2558 80.4701 75.744C79.6266 71.4546 77.6505 69.6579 73.2846 72.1344C73.1596 71.6812 73.0346 71.2361 72.9097 70.7829Z" fill="#1A6650" fill-opacity="0.22"/>
<path fill-rule="evenodd" clip-rule="evenodd" d="M96.0671 90.7001C95.9734 91.8898 96.1218 93.986 95.7469 94.0912C94.4816 94.4473 92.7165 94.5929 91.709 93.9131C89.444 92.3835 89.3737 88.2398 91.4434 86.2246C93.6225 84.1123 96.2702 83.4567 98.5821 85.7876C100.371 87.6004 101.425 89.9636 99.2381 92.1407C98.0744 89.9879 97.184 88.0051 95.9188 86.3379C95.7235 86.0708 93.2008 86.9206 92.818 87.7623C92.1932 89.1462 92.4353 90.9591 92.3182 92.5858C92.7634 92.6749 93.2086 92.7639 93.6459 92.8529C94.0833 92.1083 94.5207 91.3557 94.9581 90.6111C95.3252 90.6435 95.7001 90.6678 96.0671 90.7001Z" fill="#1A6650" fill-opacity="0.22"/>
<path fill-rule="evenodd" clip-rule="evenodd" d="M93.5051 97.7412C96.7777 98.7609 100.05 99.7888 103.315 100.808C103.346 101.31 103.385 101.804 103.416 102.306C100.386 104.03 97.3556 105.762 94.3252 107.485C96.1138 103.981 97.9883 101.003 92.5991 98.8499C92.8959 98.4777 93.2005 98.1054 93.4973 97.7331L93.5051 97.7412Z" fill="#1A6650" fill-opacity="0.22"/>
<path fill-rule="evenodd" clip-rule="evenodd" d="M46.1043 152.33C45.4951 155.64 42.8162 157.962 40.2153 157.137C37.1381 156.158 35.7009 153.964 36.3023 150.46C36.8803 147.093 38.8719 145.669 41.9258 145.912C44.8547 146.146 46.6901 149.173 46.1043 152.33ZM45.5654 152.135C43.7534 150.104 42.5116 147.862 41.7149 148.016C40.2934 148.299 38.3955 149.861 38.1143 151.205C37.88 152.321 39.4499 154.66 40.6449 155.041C41.629 155.356 43.2379 153.6 45.5654 152.135Z" fill="#1A6650" fill-opacity="0.22"/>
<path fill-rule="evenodd" clip-rule="evenodd" d="M43.0504 60.7473C41.4336 61.1034 39.8169 61.4514 37.3567 61.9937C40.473 64.5997 45.206 61.7671 45.4794 66.6068C45.5341 67.6427 43.8236 69.4637 42.6755 69.7227C41.1681 70.0626 39.403 69.2209 37.9659 67.9664C39.8091 67.8855 41.6445 67.8046 43.4878 67.7236C43.5034 67.2138 43.519 66.7039 43.5346 66.194C42.6989 65.8946 41.8632 65.6113 41.0353 65.2957C39.4654 64.6806 37.9034 64.0494 36.3413 63.4181C36.8412 62.3012 37.0989 60.4884 37.8799 60.197C39.442 59.6305 41.2853 59.8895 43.0191 59.8085C43.0348 60.1161 43.0426 60.4317 43.0582 60.7392L43.0504 60.7473Z" fill="#1A6650" fill-opacity="0.22"/>
<path fill-rule="evenodd" clip-rule="evenodd" d="M31.3273 66.4611C29.9683 67.0681 28.6172 67.667 27.2269 68.2901C30.1948 69.2209 32.702 70.0059 35.2013 70.7909C34.7326 72.0939 34.5999 74.0768 33.7173 74.5543C32.249 75.3393 30.2886 75.1532 28.4609 74.5219C30.2964 73.8421 32.1318 73.1622 33.9672 72.4824C33.8579 71.9725 33.7485 71.4627 33.6392 70.9528C32.6551 70.9771 31.6632 71.0985 30.6947 70.9933C29.0311 70.8152 27.3597 70.5724 25.7664 70.0868C25.618 70.0383 25.6414 67.578 26.196 67.1814C27.6252 66.1778 29.406 65.7003 31.0384 65.0205C31.1321 65.498 31.2258 65.9836 31.3195 66.4611H31.3273Z" fill="#1A6650" fill-opacity="0.22"/>
<path fill-rule="evenodd" clip-rule="evenodd" d="M90.6313 72.7252C89.2489 74.093 87.6712 75.315 86.57 76.9013C85.9998 77.7268 86.2732 79.1836 86.1716 80.3571C87.2417 80.3328 88.4835 80.6646 89.3348 80.2033C90.9984 79.2969 92.4433 77.9453 94.8724 76.092C93.1697 80.4542 90.9984 82.7689 87.5072 82.5342C86.1482 82.437 83.9301 80.5513 83.7973 79.2888C83.3443 74.8456 87.515 74.0444 89.616 71.5598C89.9518 71.9483 90.2877 72.3368 90.6235 72.7252H90.6313Z" fill="#1A6650" fill-opacity="0.22"/>
<path fill-rule="evenodd" clip-rule="evenodd" d="M59.9522 57.7366C58.7026 57.9552 57.4529 58.1737 56.5157 58.3274C58.3355 60.8363 59.9366 63.0377 61.5377 65.239C60.1084 65.9593 58.6088 67.3837 57.2811 67.2218C55.8284 67.0519 54.5397 65.4333 53.1729 64.4378C53.3994 64.1707 53.6337 63.9117 53.8602 63.6447C55.5862 64.3407 57.3201 65.0367 59.3118 65.8298C59.9366 60.9496 51.4233 62.8758 55.1957 57.4615C55.8518 56.5146 58.3277 56.9435 59.9678 56.7331C59.9678 57.0649 59.9522 57.3967 59.9444 57.7286L59.9522 57.7366Z" fill="#1A6650" fill-opacity="0.22"/>
<path fill-rule="evenodd" clip-rule="evenodd" d="M67.7861 60.6664C69.395 62.6816 70.9961 64.6968 72.5973 66.7201C71.4413 67.4889 70.2932 68.8809 69.1295 68.889C66.9816 68.889 64.5995 68.3306 64.9822 65.0286C65.4899 64.9153 65.8413 64.713 65.9819 64.8182C67.13 65.6922 68.2235 66.6391 69.4028 67.4727C69.4809 67.5294 70.4338 66.4773 70.4026 66.4368C69.5512 65.3928 68.6218 64.4216 67.7158 63.4262C67.2706 62.9325 66.8567 62.4145 66.4271 61.9046C66.8801 61.4919 67.3253 61.0791 67.7783 60.6745L67.7861 60.6664Z" fill="#1A6650" fill-opacity="0.22"/>
<path fill-rule="evenodd" clip-rule="evenodd" d="M49.0255 67.4565C48.5334 64.2597 48.0492 61.0548 47.5571 57.858C48.1741 57.7609 48.7834 57.6557 49.4004 57.5586C49.8143 60.7716 50.2283 63.9765 50.6422 67.1895C50.1033 67.2785 49.5644 67.3675 49.0255 67.4565Z" fill="#1A6650" fill-opacity="0.22"/>
<path fill-rule="evenodd" clip-rule="evenodd" d="M78.2832 111.791C76.7211 113.507 74.7841 116.906 73.6595 116.639C69.9027 115.732 71.8709 112.317 72.1286 109.768C72.1989 109.047 72.1052 108.141 72.4801 107.655C73.4486 106.385 74.6436 104.329 75.7526 104.329C78.4628 104.313 78.4238 106.66 77.9317 108.829C77.7677 109.533 77.5724 110.229 77.3928 110.925C77.6974 111.216 77.9942 111.5 78.2988 111.791H78.2832Z" fill="#1A6650" fill-opacity="0.22"/>
<path fill-rule="evenodd" clip-rule="evenodd" d="M57.1404 106.83C56.9217 107.979 57.0076 109.347 56.414 110.213C55.7267 111.208 54.3209 112.463 53.4461 112.301C52.5401 112.131 51.3139 110.439 51.267 109.371C51.1811 107.226 51.4857 104.928 52.2433 102.937C52.7119 101.691 54.2974 100.897 55.3831 99.902C56.1563 101.213 57.156 102.435 57.6246 103.852C57.898 104.693 57.3278 105.826 57.1404 106.83Z" fill="#1A6650" fill-opacity="0.22"/>
<path fill-rule="evenodd" clip-rule="evenodd" d="M31.0615 101.302C31.2802 100.161 31.1865 98.7771 31.7879 97.9354C32.4752 96.9804 33.8966 95.8555 34.7948 96.0093C35.6774 96.163 36.9427 97.8464 36.9349 98.85C36.9192 101.14 36.4897 103.528 35.7008 105.673C35.3025 106.749 33.7404 107.38 32.7095 108.206C31.9753 107.048 30.9365 105.98 30.6007 104.718C30.3351 103.706 30.9365 102.46 31.1474 101.318C31.1162 101.318 31.0927 101.31 31.0615 101.302Z" fill="#1A6650" fill-opacity="0.22"/>
<path fill-rule="evenodd" clip-rule="evenodd" d="M58.2883 110.002C58.5695 108.052 58.546 105.972 59.2255 104.183C59.6785 103.002 61.1235 102.233 62.131 101.27C62.912 102.557 64.2242 103.795 64.3491 105.154C64.5209 107.016 64.1148 109.112 63.3572 110.82C62.8105 112.058 61.3187 113.547 60.194 113.596C59.2724 113.636 58.2727 111.718 57.3042 110.674C57.6322 110.447 57.9603 110.229 58.2883 110.002Z" fill="#1A6650" fill-opacity="0.22"/>
<path fill-rule="evenodd" clip-rule="evenodd" d="M38.427 101.27C39.1455 100.023 42.5352 99.028 39.2627 96.7538C40.8326 97.0694 42.4024 97.3931 43.8239 97.6764C43.574 100.728 43.5662 103.617 43.0585 106.417C42.3165 110.504 40.5826 110.917 37.4507 108.019C41.6995 106.466 42.0041 104.742 38.4348 101.278L38.427 101.27Z" fill="#1A6650" fill-opacity="0.22"/>
<path fill-rule="evenodd" clip-rule="evenodd" d="M82.5238 108.109C81.5709 107.364 80.8367 106.789 80.0947 106.215C81.032 105.923 82.1411 105.179 82.8596 105.47C83.7187 105.818 84.984 107.396 84.7888 107.858C83.3048 111.354 81.5006 114.704 79.798 118.096C79.3371 117.869 78.8685 117.65 78.4077 117.424C79.7667 114.348 81.1257 111.265 82.5238 108.109Z" fill="#1A6650" fill-opacity="0.22"/>
</g>
<defs>
<clipPath id="clip0_260_714">
<rect width="169" height="169.56" fill="white"/>
</clipPath>
</defs>
</svg>
